<?xml version="1.0" standalone="no"?>
<!DOCTYPE svg PUBLIC "-//W3C//DTD SVG 1.1//EN" "http://www.w3.org/Graphics/SVG/1.1/DTD/svg11.dtd" >
<svg xmlns="http://www.w3.org/2000/svg">
<metadata></metadata>
<defs>
<font id="distu" horiz-adv-x="890" >
<font-face units-per-em="2048" ascent="1638" descent="-410" />
<missing-glyph horiz-adv-x="464" />
<glyph unicode="&#xfb01;" horiz-adv-x="966" d="M53 -385q37 188 62.5 341t47 284t43 248.5t50.5 238.5h-137v64h149q27 119 74 215t108.5 165.5t136.5 111.5t156 54q59 8 99.5 -7t50.5 -38q14 -29 5 -52t-34 -30q-14 -4 -27.5 4.5t-29.5 20.5t-39 21.5t-53 7.5q-51 -4 -101.5 -38t-94.5 -95.5t-80 -147.5t-56 -192h381 q51 0 75.5 -26t14.5 -73l-92 -551q-10 -66 -1 -84t56 -18v-37l-141 2l-119 -2v37q41 0 59.5 15.5t30.5 80.5l94 524q4 25 -2 38.5t-18 19.5t-27.5 7t-27.5 1h-299l-211 -1067z" />
<glyph unicode="&#xfb02;" horiz-adv-x="1222" d="M53 -387q37 188 62.5 340.5t47 284t43 250t50.5 239.5h-137v64h149q18 80 58.5 153.5t94.5 135t121.5 104.5t140.5 60.5t147.5 6t146.5 -60.5l-223 -1133q27 0 85 -17t121.5 -24.5t120 7t78.5 75.5h39q-6 -63 -37 -95t-78 -42t-108.5 -6t-130 14.5t-141 20.5t-144.5 10 v37q20 0 34.5 3t25 13t17.5 28.5t13 51.5l215 1000q-74 43 -151.5 35.5t-145 -55.5t-117 -131t-67.5 -191h168v-66h-184l-211 -1069z" />
<glyph horiz-adv-x="2048" />
<glyph horiz-adv-x="2048" />
<glyph unicode="&#xd;" horiz-adv-x="464" />
<glyph unicode=" "  horiz-adv-x="464" />
<glyph unicode="&#x09;" horiz-adv-x="464" />
<glyph unicode="&#xa0;" horiz-adv-x="464" />
<glyph unicode="!" horiz-adv-x="602" d="M90 59q4 31 30.5 53.5t59.5 22.5q31 0 49.5 -22.5t12.5 -53.5q-4 -33 -31 -54t-59 -21q-31 0 -49.5 21.5t-12.5 53.5zM186 272q35 143 66 284.5t41 246.5q6 84 16 148.5t17 103.5q10 47 38.5 79.5t79.5 32.5q25 0 39.5 -14t21.5 -35.5t8 -45.5t-3 -44q-8 -39 -24.5 -88 t-32.5 -86q-57 -141 -108.5 -296t-84.5 -286h-74z" />
<glyph unicode="&#x22;" horiz-adv-x="647" d="M166 791l37 262h116l-114 -262h-39zM340 791l37 262h117l-115 -262h-39z" />
<glyph unicode="#" horiz-adv-x="991" d="M106 356l15 74h186l53 287h-186l14 74h187l41 237h73l-43 -237h187l41 237h74l-41 -237h180l-15 -74h-180l-53 -287h180l-14 -74h-180l-41 -235h-74l43 237h-186l-41 -237h-74l41 235h-187zM381 430h184l53 287h-184z" />
<glyph unicode="$" horiz-adv-x="923" d="M172 0l25 211h43q10 -90 52 -127t91 -37q53 0 97 37t44 96q0 33 -11 58.5t-28.5 47t-38 39t-40.5 35.5q-16 16 -40 36t-45.5 46.5t-36 61.5t-14.5 82q0 41 15.5 77.5t43 65.5t63.5 47.5t77 24.5l20 145h76l-20 -149q31 -6 59 -21q16 -8 29.5 -2t17.5 17h37l-20 -197h-41 q-20 86 -58.5 120t-79.5 34t-73.5 -33t-32.5 -86q0 -35 11.5 -62.5t29.5 -51t39.5 -42t42.5 -37.5q18 -16 41.5 -35.5t43 -45t33 -58.5t13.5 -74q0 -78 -58.5 -140.5t-144.5 -80.5l-26 -182h-76l24 174q-59 4 -114 26l-33 -20h-37z" />
<glyph unicode="%" horiz-adv-x="1185" d="M92 539q-10 43 0 92q8 49 36 92t65.5 74.5t85 50t96.5 18.5t88 -18.5t64.5 -50t34.5 -74.5t1 -92q-10 -49 -37.5 -92t-65.5 -75t-85 -50.5t-96 -18.5t-88 18.5t-64 50.5t-35 75zM197 635q-16 -78 11.5 -133.5t80.5 -55.5q27 0 54.5 14.5t50 40t40 60.5t25.5 74 q16 78 -11.5 133t-82.5 55q-27 0 -53.5 -14t-50 -40t-40 -60.5t-24.5 -73.5zM209 -86l668 952h94l-668 -952h-94zM631 64.5q-10 41.5 0 91.5q10 49 36.5 92t65.5 74.5t85 50t95 18.5t88 -18.5t65 -50t36 -74.5t0 -92t-38 -91t-65.5 -75t-85 -51.5t-96.5 -18.5t-88 18.5 t-63.5 51.5t-34.5 74.5zM735 160q-16 -78 11.5 -133.5t80.5 -55.5q27 0 54.5 14.5t50 40t40 60.5t25.5 74q14 78 -12.5 134t-79.5 56q-55 0 -104 -56t-66 -134z" />
<glyph unicode="&#x26;" horiz-adv-x="819" d="M66.5 201.5q-9.5 58.5 17.5 117t93.5 111.5t180.5 90q-76 43 -98 107.5t-3 126t75.5 105.5t138.5 48q45 2 76 -1t53.5 -9t40.5 -14.5t43 -16.5l-14 -145h-41q-4 82 -57.5 117.5t-129.5 9.5q-25 -8 -49 -35t-31.5 -65.5t12 -86t87.5 -96.5l-8 -57q-104 -37 -162 -88 t-79.5 -106.5t-13 -107.5t36 -92t68.5 -61.5t86 -13.5q55 10 94 60.5t43 119.5q4 45 -14 71.5t-84 26.5v37l111 -2h79l115 2v-37q-53 0 -72.5 -21.5t-23.5 -66.5q-6 -47 -28.5 -90t-62.5 -75.5t-95.5 -52t-126.5 -19.5q-68 0 -123.5 28.5t-90 75.5t-44 105.5z" />
<glyph unicode="'" horiz-adv-x="432" d="M166 791l37 262h116l-114 -262h-39z" />
<glyph unicode="(" horiz-adv-x="667" d="M223 291q0 131 36 254t97.5 232.5t144.5 206.5t177 177l31 -33q-98 -88 -170 -196.5t-117 -230t-66.5 -254t-21.5 -265.5q0 -131 28.5 -261t90.5 -247l-37 -20q-41 63 -76 141t-60.5 162t-41 169t-15.5 165z" />
<glyph unicode=")" horiz-adv-x="667" d="M-55 -311q98 88 169.5 196.5t116.5 230.5t66.5 253t21.5 264t-28.5 263t-89.5 247l37 20q39 -66 74.5 -142.5t61 -160.5t41 -169t15.5 -165q0 -133 -36 -254.5t-97 -231.5t-144 -207t-178 -177z" />
<glyph unicode="*" horiz-adv-x="843" d="M147 752l199 39l-156 129l48 55l159 -137l49 190l70 -18l-47 -189l203 43l16 -71l-203 -37l160 -131l-47 -56l-160 138l-47 -189l-72 19l50 188l-207 -43z" />
<glyph unicode="+" horiz-adv-x="905" d="M197 377l10 67h223l43 242h70l-45 -242h225l-10 -67h-228l-43 -240h-67l43 240h-221z" />
<glyph unicode="," horiz-adv-x="323" d="M18 -172q49 31 75 58.5t34 49t2 37t-18 21.5q-16 10 -25.5 26.5t-5.5 38.5q6 33 33.5 57.5t64.5 18.5q37 -4 60.5 -41.5t-5.5 -103.5t-70.5 -101.5t-111.5 -74.5z" />
<glyph unicode="-" horiz-adv-x="604" d="M162 377l10 67h268l-6 -67h-272z" />
<glyph unicode="." horiz-adv-x="323" d="M80 59q6 33 32.5 55.5t59.5 22.5q31 0 49 -22.5t12 -55.5q-4 -31 -30.5 -53t-59.5 -22t-50 22.5t-13 52.5z" />
<glyph unicode="/" horiz-adv-x="917" d="M63 -440l707 1573h84l-702 -1573h-89z" />
<glyph unicode="0" horiz-adv-x="899" d="M55 365q8 90 47 170.5t99.5 140t137.5 94.5t163 33q170 -4 263 -104.5t79 -278.5q-8 -90 -47 -171t-98.5 -140.5t-137.5 -94t-162 -32.5q-172 4 -265 104t-79 279zM182 348q-4 -80 19.5 -145.5t66.5 -107.5t99.5 -55t119.5 9q39 14 78 47t71 83t52.5 115.5t24.5 143.5 q4 82 -18.5 147.5t-65.5 106.5t-100.5 55.5t-120.5 -8.5q-39 -14 -78 -47t-70 -83t-52.5 -115.5t-25.5 -145.5z" />
<glyph unicode="1" horiz-adv-x="563" d="M96 0v37q41 0 60.5 15.5t29.5 80.5l95 551q4 25 -2.5 38t-18.5 20.5t-27.5 9.5t-27.5 2v37h119q12 0 27.5 -2.5t27.5 -9.5t19.5 -20.5t2.5 -37.5l-100 -582q-10 -66 -1 -84t58 -18v-37l-143 2z" />
<glyph unicode="2" horiz-adv-x="679" d="M35 0q80 102 160.5 197.5t142 178.5t92.5 151.5t10 121.5q-31 78 -117.5 85t-205.5 -87v55q51 55 114.5 83t125 30t112.5 -19.5t78 -64.5q39 -63 20.5 -133t-74 -147.5t-136.5 -161.5t-162 -174h186h40.5t36 4t27 14t17.5 31h47l-31 -164h-483z" />
<glyph unicode="3" horiz-adv-x="667" d="M-37 -217q88 6 170 53t141.5 110.5t89 134.5t14 125t-81 82.5t-196.5 8.5l349 381h-152q-43 0 -84 -5t-53 -44h-47l43 162h481l-367 -396q125 -2 178.5 -50t54.5 -118.5t-43 -153.5t-117 -155t-163 -121t-182 -53l-35 -2v41z" />
<glyph unicode="4" horiz-adv-x="778" d="M10 0v37l598 754h51l-116 -676h90l-21 -115h-90l-22 -127q-6 -29 -7 -46t7 -26.5t25.5 -13.5t52.5 -4v-39l-123 4h-78l-109 -4v37q33 0 53.5 4t33 14.5t19.5 27.5t11 44l23 129h-398zM145 115h283l86 471z" />
<glyph unicode="5" horiz-adv-x="696" d="M-35 -215q84 8 164 60.5t138.5 124t89 151.5t15 143.5t-84 99t-205.5 21.5l147 406h371l-31 -115h-319l-70 -191q145 8 218 -41t88.5 -130t-19.5 -178t-104.5 -182t-164 -144.5t-198.5 -63.5l-35 -2v41z" />
<glyph unicode="6" horiz-adv-x="815" d="M107.5 324.5q1.5 93.5 29.5 189.5q29 100 89.5 187t136 155t157.5 112t156 54l31 -41q-61 -16 -127 -57t-125.5 -102.5t-107.5 -140.5t-75 -173q100 53 176 59t126.5 -20.5t76 -77.5t29.5 -112.5t-15.5 -126t-59.5 -117t-99.5 -86t-138.5 -33.5q-90 0 -147.5 45 t-85.5 118.5t-26.5 167zM254 152.5q35 -103.5 127 -107.5q57 -4 100 37t63.5 100.5t17.5 125t-35.5 111.5t-98.5 59.5t-170 -32.5q-39 -190 -4 -293.5z" />
<glyph unicode="7" horiz-adv-x="751" d="M51 -256l524 934h-296q-43 0 -83 -5t-55 -44h-47l41 162h584l-594 -1047h-74z" />
<glyph unicode="8" horiz-adv-x="808" d="M65.5 225.5q4.5 59.5 36 116.5t92 107.5t150.5 82.5q-74 45 -109.5 102.5t-40 119t19.5 119t68 100.5t106 67.5t134 18.5q102 -8 159.5 -69.5t62 -142.5t-50 -162t-177.5 -126q82 -45 121 -106.5t43 -127t-23.5 -128t-80 -109.5t-125 -73.5t-156.5 -20.5q-80 6 -132 40 t-77 83t-20.5 108.5zM208 226.5q-1 -74.5 40 -128t125 -47.5q29 2 64.5 19.5t65 47t47 70.5t9.5 89.5t-48 103t-126 111.5q-88 -39 -132 -115t-45 -150.5zM304 787q11 -44 50 -92t117 -99q80 35 116 105.5t30.5 139t-47.5 117t-115 39.5q-29 -4 -61 -21.5t-55.5 -45 t-34.5 -63.5t0 -80z" />
<glyph unicode="9" horiz-adv-x="786" d="M66 -174q63 14 129.5 52t128 96.5t112.5 136t82 170.5q-137 -66 -225 -52.5t-131 72.5t-44 146.5t37 167t110.5 134t176.5 50.5q92 -4 147.5 -51.5t80 -122t18.5 -168t-37 -187.5q-33 -98 -96 -183t-142 -149.5t-162 -105.5t-157 -49zM233 493.5q0 -65.5 32 -112.5 t98 -63.5t172 24.5q47 188 16 292.5t-125 115.5q-57 4 -101 -35t-68 -97.5t-24 -124z" />
<glyph unicode=":" horiz-adv-x="432" d="M80 59q6 33 32.5 55.5t59.5 22.5q31 0 49 -22.5t12 -55.5q-4 -31 -30.5 -53t-59.5 -22t-50 22.5t-13 52.5zM199 465q6 31 32.5 53.5t57.5 22.5q33 0 50 -22.5t13 -53.5q-6 -33 -32.5 -55.5t-59.5 -22.5q-31 0 -49 22.5t-12 55.5z" />
<glyph unicode=";" horiz-adv-x="432" d="M39 -180q49 31 74.5 58.5t33 49t2 37t-17.5 21.5q-39 20 -33 67q6 31 34 55.5t67 20.5q37 -6 59.5 -42.5t-4.5 -104.5q-29 -66 -71 -101t-111 -74zM203 459q6 33 32.5 55.5t59.5 22.5q31 0 49 -22.5t12 -55.5q-4 -31 -30.5 -53.5t-59.5 -22.5t-50 22.5t-13 53.5z" />
<glyph unicode="&#x3c;" horiz-adv-x="645" d="M94 319l10 72l449 207l-14 -88l-361 -158l318 -159l-13 -78z" />
<glyph unicode="=" horiz-adv-x="921" d="M180 250l13 65h514l-11 -65h-516zM203 412l10 67h516l-10 -67h-516z" />
<glyph unicode="&#x3e;" horiz-adv-x="647" d="M94 115l15 88l360 159l-317 160l10 76l391 -205l-10 -71z" />
<glyph unicode="?" horiz-adv-x="856" d="M158 59q6 33 32.5 55.5t59.5 22.5q31 0 49 -22.5t12 -55.5q-6 -31 -32.5 -53t-57.5 -22q-33 0 -50 22.5t-13 52.5zM242 313.5v20.5q0 117 43 215t135 170q49 39 93 73.5t77 68.5t52.5 71t19.5 82q0 31 -12.5 51t-32 32.5t-43 17.5t-44.5 5q-68 0 -126 -30.5t-72 -104.5 h-41l6 133q74 29 134.5 40t109.5 11q61 0 104 -15t71.5 -42t42 -59.5t13.5 -65.5q0 -49 -18.5 -92t-48 -82t-67.5 -72.5t-75 -60.5q-35 -25 -70.5 -57.5t-70.5 -77.5t-67.5 -106.5t-57.5 -145.5h-53q-2 10 -2 20.5z" />
<glyph unicode="@" horiz-adv-x="1443" d="M86 383q0 137 52 260t143.5 213t212 143.5t260.5 53.5q137 0 249.5 -46t192.5 -129t124 -197t44 -247q0 -115 -39 -197.5t-102.5 -137t-143.5 -81t-161 -26.5q-47 0 -81 23.5t-40 70.5q-154 -86 -242 -92t-132 30.5t-53.5 96t-4.5 102.5q4 43 27.5 107.5t63.5 134.5 t97 136.5t132 114.5t167 70.5t201 4.5l-119 -584q-12 -59 -5 -96t58 -31q49 6 100.5 30.5t93.5 69.5t68.5 108.5t26.5 143.5q0 113 -37 210t-104.5 169t-164 114t-216.5 42q-121 0 -226.5 -46.5t-183.5 -125t-124 -184t-46 -226.5t46 -226.5t124 -183t183.5 -124 t226.5 -46.5q82 0 154.5 20.5t138.5 59.5l36 -84q-74 -41 -156.5 -63.5t-172.5 -22.5q-139 0 -260 52.5t-212.5 143.5t-143.5 212t-52 260zM484 191.5q5 -60.5 41 -92t103.5 -24.5t174.5 70l125 598q-78 2 -146.5 -34.5t-125 -98t-97.5 -137.5t-60.5 -148.5t-14.5 -133z" />
<glyph unicode="A" horiz-adv-x="808" d="M53 223q4 43 27.5 107.5t63.5 134.5t97.5 136.5t132.5 114.5t167 70q51 12 107 13q45 0 93 -8l-118 -584q-6 -31 -10.5 -58.5t-2.5 -49t14.5 -32t37.5 -6.5q14 4 33.5 12.5t41.5 24.5l23 -28q-39 -29 -73 -53.5t-81 -24.5t-80.5 23.5t-40.5 70.5q-153 -86 -241 -92 q-12 -1 -24 -1q-70 -1 -108 31q-44 36 -54 96q-7 42 -6 76q0 14 1 27zM173 192q5 -60 40 -92q29 -26 79 -26q12 0 24 1q68 7 173 70l127 598h-8q-72 -1 -138 -35q-68 -36 -124.5 -97.5t-97.5 -137.5q-40 -77 -60 -149q-16 -58 -16 -107q0 -13 1 -25z" />
<glyph unicode="B" horiz-adv-x="729" d="M57 0v37q41 0 61.5 18.5t31.5 77.5l94 551q4 25 -3.5 39t-20.5 21.5t-30.5 8.5t-31.5 1v37l252 8h23q48 -1 84 -7q44 -8 71.5 -23t42 -36.5t20.5 -46.5q5 -21 5 -41q0 -25 -8 -48q-15 -42 -44 -75t-62.5 -55.5t-58.5 -30.5q31 -6 61.5 -20.5t55.5 -38t38 -57.5 q9 -24 9 -54q0 -14 -2 -28q-30 -240 -385 -240h-18zM260 135q-2 -10 -2 -19q0 -40 28 -58q20 -13 50 -13q23 0 51 8q41 12 74 43t51 70t18 81t-22.5 75.5t-72.5 53.5q-39 16 -95 16q-17 0 -35 -1zM317 446l26 -2q47 0 85 18q48 22 76 58.5t36 79.5q3 15 4 30q0 26 -10 49 q-16 37 -57 57q-29 15 -73 14q-17 0 -37 -2z" />
<glyph unicode="C" horiz-adv-x="794" d="M51 358q2 86 36 170t95.5 148.5t146.5 102.5q73 33 161 33q14 0 28 -1q49 -2 80 -8t52.5 -13.5t33.5 -13.5t25 -8q29 -6 39 23h43l-43 -207h-41q0 51 -16.5 84.5t-44.5 54t-62.5 30t-71.5 9.5q-61 0 -124.5 -28.5t-113.5 -83.5q-52 -54 -82 -133q-25 -66 -25 -145 q0 -16 1 -32q6 -158 82 -233.5t188 -79.5h11q75 0 135 49q64 53 96 145h41l-47 -194q-25 2 -47.5 -6.5t-51 -17.5t-65.5 -16q-29 -5 -67 -5h-23q-84 2 -152.5 29.5t-117.5 76.5q-48 50 -74 118q-25 64 -25 140v12z" />
<glyph unicode="D" horiz-adv-x="892" d="M55 0v37q45 0 65.5 15.5t31.5 80.5l96 561q4 27 -5.5 39t-24.5 16.5t-32.5 4.5h-27.5v37l225 4h17q111 0 192 -25q88 -27 144 -76q58 -48 84 -116q23 -59 22 -126v-20q-6 -121 -53.5 -204t-118.5 -135q-70 -51 -157 -75q-80 -22 -161 -22h-14zM264 137q-3 -18 -3 -31 q1 -32 17 -44q24 -16 84 -15q59 0 118 21.5t108 70.5t83 128t42 192q1 14 1 28q0 62 -22 109q-28 57 -78 93q-52 37 -116 49q-34 7 -69 6q-31 0 -62 -5z" />
<glyph unicode="E" horiz-adv-x="741" d="M53 217q-1 14 -1 28q0 89 33 175q38 98 102.5 177t147.5 131t167 69q26 5 49 5q43 0 74 -18q47 -26 60 -76q5 -18 5 -37q0 -34 -14 -74q-22 -62 -84 -117.5t-165 -96.5t-251 -47q-6 -25 -8 -65v-12q0 -35 9 -69q11 -40 40 -73t82 -43q18 -4 39 -4q42 0 98 14 q84 20 205 88l25 -35q-131 -84 -227.5 -118.5t-164.5 -35.5h-5q-64 -1 -104 23q-42 24 -66.5 61t-34 78t-11.5 72zM188 399h13q75 1 135 21q66 22 114 58t78 79q32 43 44 82q8 24 7 43q0 12 -3 24q-8 28 -35 31q-6 1 -13 1q-26 0 -64 -12q-48 -15 -100.5 -56t-100.5 -107.5 t-75 -163.5z" />
<glyph unicode="F" horiz-adv-x="507" d="M53 -385q37 188 62.5 341t47 284t43 248.5t50.5 238.5h-137v64h149q27 119 74 215t108.5 165.5t136.5 111.5t156 54q21 3 39 3q34 0 60 -10q40 -15 51 -38q9 -18 9 -33q0 -10 -4 -19q-9 -23 -34 -30q-14 -4 -27.5 4.5t-29.5 20.5t-39 21.5t-53 7.5q-51 -4 -101.5 -38 t-94.5 -95.5t-80 -147.5t-56 -192h168v-66h-184l-211 -1067z" />
<glyph unicode="G" horiz-adv-x="845" d="M2 -205q0 49 29.5 85t76 64.5t103.5 50t115 44.5q-25 12 -64 32.5t-75.5 57.5t-63.5 92q-25 51 -25 128v11q0 86 36 170t98.5 148.5t149.5 101.5q75 32 161 32q14 0 28 -1q49 -2 80 -8t52.5 -13.5t35 -13.5t25.5 -8q16 -4 24.5 3t12.5 20h43l-41 -207h-41 q0 51 -16.5 84.5t-44 54t-62.5 30t-74 9.5q-61 0 -124.5 -28.5t-114 -82t-80.5 -131.5q-24 -65 -24 -143q0 -16 1 -33q4 -66 49 -112t111 -81.5t139.5 -67.5t135 -65.5t100.5 -74.5q34 -36 34 -82q0 -8 -1 -15q-6 -55 -46 -100t-101.5 -75.5t-137.5 -47t-154 -16.5 q-74 0 -138 10t-111.5 33.5t-74 59.5t-26.5 85zM131 -201q6 -51 68.5 -89t167.5 -44q16 -1 31 -1q41 0 79 7q53 11 93 31.5t64 48.5q23 25 23 55q0 35 -21 63q-20 24 -55.5 44t-87 39.5t-114.5 46.5q-137 -41 -195 -96q-54 -49 -54 -95q0 -5 1 -10z" />
<glyph unicode="H" horiz-adv-x="964" d="M33 0v37q41 0 60.5 15.5t29.5 80.5l94 551q4 25 -2 38t-18.5 20.5t-27.5 9.5t-28 2v37l140 -3l131 3v-37q-31 0 -52.5 -10.5t-27.5 -51.5l-43 -254h409l41 250q6 43 -19.5 54.5t-49.5 11.5v37l141 -3l119 3v-37q-31 0 -50.5 -10.5t-27.5 -59.5l-96 -561q-4 -23 -4 -39 q0 -20 6 -30q10 -18 63 -17v-37l-125 2l-139 -2v37q45 0 60.5 18.5t25.5 77.5l47 252h-409l-43 -246q-5 -35 -5 -56q0 -19 4 -28q9 -18 58 -18v-37l-143 2z" />
<glyph unicode="I" horiz-adv-x="489" d="M53 0v37q41 0 60.5 15.5t29.5 80.5l95 551q4 25 -2.5 38t-18.5 20.5t-27.5 9.5t-27.5 2v37l139 -3l135 3v-37q-35 0 -56.5 -10.5t-27.5 -51.5l-94 -553q-5 -35 -5 -56q0 -19 4 -28q9 -18 58 -18v-37l-143 2z" />
<glyph unicode="J" horiz-adv-x="479" d="M-113 -227l15 47q55 0 97 33.5t72.5 89t52 124t34.5 140.5l86 477q4 25 -3.5 38t-19.5 20.5t-26.5 9.5t-26.5 2v37l139 -3l129 3v-37q-31 0 -51 -10.5t-29 -51.5l-67 -381q-23 -117 -58.5 -219t-86 -176t-114.5 -114q-51 -31 -110 -31q-16 0 -33 2z" />
<glyph unicode="K" horiz-adv-x="774" d="M47 0v37q20 0 33.5 3t24 13t17.5 28.5t13 51.5l146 778q4 25 -2.5 38.5t-18.5 19.5t-27.5 8t-27.5 2v37l139 -2l131 2v-37q-31 0 -51.5 -9t-28.5 -52l-94 -480q23 2 60.5 34t105.5 110q39 43 67.5 75.5t43 54t10.5 32t-31 10.5v37l115 -5l108 5v-37q-43 0 -73.5 -18.5 t-68.5 -58.5t-93.5 -101.5t-145.5 -149.5q10 0 30 -28.5t46.5 -71.5t59 -94.5t67.5 -94.5t74 -71.5t76 -28.5v-37q-25 -5 -49 -5q-43 -1 -79 15q-58 24 -104.5 68.5t-84.5 99.5t-65.5 104.5t-47 81t-29.5 29.5l-41 -254q-6 -37 -6 -59q0 -17 4 -25q8 -18 57 -18v-37l-141 2z " />
<glyph unicode="L" horiz-adv-x="708" d="M47 0v37q20 0 33.5 3t24 13t17.5 28.5t13 51.5l146 778q4 25 -2.5 38.5t-18.5 19.5t-27.5 8t-27.5 2v37l139 -2l139 2v-37q-37 0 -59.5 -9t-28.5 -52l-155 -861q18 0 51 -9t73 -17q39 -9 82 -15q27 -4 52 -3q15 0 30 1q39 4 71 23.5t46 60.5h39q-6 -63 -37 -95t-77 -42 q-33 -7 -74 -7q-16 0 -34 1q-62 4 -130 14.5t-140.5 20.5t-144.5 10z" />
<glyph unicode="M" horiz-adv-x="1335" d="M68 719q82 66 142 78q14 3 27 2q41 0 65 -29q29 -36 29 -113v-15q-3 -89 -50 -226q111 199 218 292q103 89 180 89h7q88 -4 98 -89q2 -14 2 -31q0 -87 -45 -257q109 197 219 291q101 87 175 87q6 0 12 -1q49 -4 71 -43q20 -36 19 -97v-12q-2 -70 -23.5 -167t-54.5 -220 q-26 -93 -25 -146v-6q1 -45 37 -45q7 0 15 2q12 4 30.5 11.5t40.5 23.5l21 -28q-37 -29 -72 -53.5t-80 -24.5q-23 0 -45 9t-36.5 31.5t-17.5 62.5v13q0 37 13 89q31 113 54.5 211t31.5 166q3 24 2 45q0 36 -8 57q-9 22 -31 22q-11 0 -26 -6q-33 -12 -91.5 -64.5t-121 -140.5 t-119.5 -210.5t-88 -276.5q-22 -4 -39 -4q-30 0 -42 12q-10 10 -10 33q0 20 7 49q43 178 73 301t38 195q3 24 3 43q-1 37 -11 54q-9 15 -28 15q-14 0 -34 -8q-29 -10 -86 -64.5t-120.5 -144.5t-124 -212t-95.5 -269q-21 -4 -37 -4q-27 0 -39 12q-9 9 -10 30q0 20 8 50 q45 188 82 322q37 136 46 212q2 20 2 35q0 45 -18 59q-7 5 -19 4q-29 0 -85 -32z" />
<glyph unicode="N" horiz-adv-x="978" d="M49 0v37q27 0 43.5 3t26.5 12t16 27.5t12 49.5l84 481q4 23 4 42q0 16 -3 29q-7 28 -23 44t-40 22.5t-48 6.5v37l84 -3l98 3l389 -609l82 482q4 23 4 40q0 28 -10 36q-16 14 -70 14v37l125 -3l109 3v-37q-23 0 -37 -3t-23.5 -13.5t-14.5 -29t-11 -51.5l-101 -561 q14 -25 28.5 -42t33.5 -17v-37h-55l-76 -2l-379 588l-82 -461q-4 -21 -4 -36q1 -27 13 -37q18 -14 79 -15v-37l-129 2z" />
<glyph unicode="O" d="M53 365q6 90 45 170.5t99.5 140t138.5 94.5q74 33 155 33h9q168 -5 261 -105q81 -87 81 -233q0 -22 -2 -45q-6 -90 -45 -171t-99 -141q-61 -60 -138 -94q-73 -33 -154 -32h-9q-84 2 -151.5 28.5t-111.5 75.5q-44 50 -66 120q-16 51 -15 112q0 23 2 47zM180 348 q-1 -12 0 -23q0 -67 20 -123q24 -66 66 -108q44 -41 100 -54q21 -5 42 -5q37 0 77 14q39 14 78 47t71 83t52.5 115.5t24.5 143.5q1 12 1 24q0 68 -20 124q-24 66 -67 106q-43 42 -99 56q-22 6 -45 5q-36 0 -75 -14t-78 -47t-71 -83t-52.5 -115.5t-24.5 -145.5z" />
<glyph unicode="P" horiz-adv-x="708" d="M16 -193q41 0 59.5 15.5t30.5 81.5l44 262q-18 -6 -42 -12.5t-77 -14.5l20 41q47 12 68.5 23.5t38.5 17.5l82 463q4 25 -3.5 38t-19.5 20.5t-27.5 9.5t-27.5 2v37l221 6q9 0 18 1q144 0 203 -62q54 -57 55 -149q0 -15 -2 -30q-10 -104 -108 -197.5t-275 -158.5l-53 -291 q-7 -36 -7 -58q0 -18 5 -26q10 -18 57 -19v-38l-141 2l-119 -2v38zM285 268q100 41 158.5 95.5t84.5 110.5q22 48 22 94q0 6 -1 14q-4 52 -29 90q-26 40 -67 58q-23 10 -47 10q-20 0 -41 -7z" />
<glyph unicode="Q" horiz-adv-x="960" d="M51 360q8 90 47 171t99.5 140.5t137.5 94.5q73 33 154 33h9q84 -2 150.5 -30t111.5 -77t66 -118q14 -50 14 -110q0 -23 -2 -48q-6 -72 -31 -137.5t-66 -120t-95 -96.5t-116 -62q78 -27 141.5 -60.5t122 -63.5t118.5 -50q49 -15 105 -15q15 0 30 1v-39q-44 -3 -83 -3 q-78 0 -138 13q-89 20 -160.5 54t-138 70t-150.5 54q-98 23 -164 59.5t-103.5 87t-51.5 114.5q-9 43 -9 93q0 22 2 45zM178 344q-1 -12 -1 -23q0 -67 21 -123q23 -65 66 -107t100 -55q20 -5 42 -5q37 0 77 14q39 12 78 45t71 83t52.5 115.5t24.5 145.5q1 12 1 24 q0 68 -20 124q-24 65 -66 106t-100 56q-22 5 -45 5q-37 0 -76 -14t-77.5 -47t-69.5 -83t-52.5 -115.5t-25.5 -145.5z" />
<glyph unicode="R" horiz-adv-x="786" d="M47 0v37q41 0 59.5 15.5t28.5 80.5l98 551q4 25 -3 38t-19 20.5t-27.5 9.5t-27.5 2v37l186 4h37q58 -1 99 -5q54 -6 89 -21t52.5 -36.5t27.5 -48.5q9 -25 9 -50q0 -21 -7 -42q-14 -45 -45 -85t-74 -72t-84 -50q20 -37 53 -95.5t73 -114.5t86.5 -97t93.5 -41v-37 q-26 -6 -50 -6q-44 0 -84 20q-60 30 -109.5 84t-87.5 121.5t-69 126.5q-23 -8 -38 -13t-31 -9l-31 -185q-7 -38 -7 -60q0 -17 4 -24q9 -18 58 -18v-37l-141 2zM289 385q100 27 157.5 67t79.5 82q17 32 18 63q0 10 -2 19q-7 41 -34 71q-27 29 -68 45q-26 10 -54 10 q-16 0 -34 -3z" />
<glyph unicode="S" horiz-adv-x="632" d="M57 0l27 211h43q8 -90 51 -127t92 -37q53 0 97.5 37t44.5 96q0 33 -11.5 58.5t-29 47t-38 39t-40.5 35.5q-16 16 -40 36t-45.5 46.5t-35.5 61.5t-14 82q0 45 18.5 84t49 68.5t71.5 47t88 17.5q55 -4 104 -27q18 -8 32 -2t18 17h36l-20 -197h-41q-23 86 -59.5 120 t-77.5 34q-43 0 -75 -33t-32 -86q0 -35 11.5 -62.5t30 -51t40 -42t41.5 -37.5q18 -16 42 -35.5t43.5 -45t32.5 -58.5t13 -74q0 -47 -21.5 -88t-57 -72.5t-84 -50t-103.5 -18.5q-63 0 -129 26l-35 -20h-37z" />
<glyph unicode="T" horiz-adv-x="604" d="M129 727v64h129l43 155h98l-28 -155h180v-64h-191l-75 -391q-6 -33 -15.5 -74t-10.5 -79v-7q0 -32 8 -58q9 -28 40 -35q8 -2 18 -2q29 1 69 15q56 20 143 76l24 -35q-100 -78 -172 -111.5t-120 -35.5h-8q-43 0 -67 20q-26 22 -38 60q-12 34 -12 74v6q1 44 10 83l96 494 h-121z" />
<glyph unicode="U" horiz-adv-x="841" d="M88 754v37l150 -3l135 3v-37q-35 0 -56.5 -10.5t-27.5 -51.5l-72 -416q-6 -35 -6 -65q0 -66 30 -107q44 -59 132 -61h12q33 0 61 9q34 11 63.5 39t51 75t35.5 119l72 379q5 24 5 41q1 27 -11 35q-18 14 -72 14v37l125 -3l110 3v-37q-23 0 -37 -3t-23 -12.5t-14.5 -28 t-11.5 -51.5l-71 -380q-16 -92 -48 -150.5t-73 -92.5t-93 -48q-45 -12 -93 -11h-15q-78 2 -129 25t-79 60q-30 36 -38 86q-4 23 -3 49q0 29 5 61l72 426q4 25 -2 38t-19.5 20.5t-31 9.5t-33.5 2z" />
<glyph unicode="V" horiz-adv-x="763" d="M47 754v37l139 -3l140 3v-37q-12 0 -27.5 -2t-28 -9.5t-18.5 -20.5t-2 -38l104 -553l244 533q13 30 13 49q-1 17 -11 25q-22 16 -61 16v37l106 -3l123 3v-37q-31 0 -51.5 -18.5t-48.5 -78.5l-316 -657h-76l-141 692q-8 41 -29.5 51.5t-58.5 10.5z" />
<glyph unicode="W" horiz-adv-x="1257" d="M51 721q113 70 171 79q13 2 24 2q40 0 58 -26q17 -26 16 -71v-27q-6 -66 -25 -144.5t-41 -160.5q-23 -83 -33 -151q-5 -34 -5 -62t5 -49q10 -43 58 -43q35 0 76.5 34.5t83.5 91t83 126t72 137.5q14 49 30.5 113.5t39 121t52.5 90.5q23 27 52 27q9 0 18 -2q27 -6 30 -44 q1 -7 1 -15q0 -33 -11 -74q-13 -51 -38 -105.5t-55 -97.5q-20 -74 -34.5 -146.5t-15.5 -130.5v-8q0 -54 14 -87t50 -33h6q35 0 75 33.5t80 87t78 120t66.5 132t47 125t20.5 100.5q1 15 1 28q-1 34 -9 46q-12 16 -52 16v37l109 -3l119 3v-37q-29 0 -52.5 -24.5t-44.5 -90.5 q-59 -190 -124.5 -318t-132 -206t-130.5 -108q-52 -24 -100 -24q-11 0 -22 1q-41 4 -66 28.5t-37 61.5t-12 84t10 100q-29 -51 -66.5 -106.5t-86 -96.5t-102.5 -63q-30 -12 -63 -12q-26 0 -53 8q-56 14 -74 62q-16 41 -15 95v17q3 64 21.5 140.5t39 149t36.5 134.5 q13 52 12 85v13q-3 37 -33 42q-3 1 -7 1q-31 0 -92 -37z" />
<glyph unicode="X" horiz-adv-x="825" d="M-6 0v37q41 0 71.5 26.5t81.5 83.5l201 228l-137 262q-35 66 -72 91.5t-67 25.5v37l129 -3h153v-36q-35 2 -51 -12q-6 -5 -6 -15q0 -19 18 -55l109 -209l176 209q36 41 36 59q0 5 -4 9q-14 16 -67 16v37h117h125v-37q-41 0 -73 -27t-81 -84l-198 -233q20 -41 60 -103.5 t88 -123t102.5 -103.5t105.5 -43v-37q-25 -4 -49 -4q-58 0 -108 24q-70 34 -123.5 89t-90.5 116.5t-61 102.5l-180 -209q-35 -41 -35 -59q0 -4 3 -8q13 -14 66 -15v-37h-116h-123z" />
<glyph unicode="Y" horiz-adv-x="835" d="M-66 -389l19 67q43 4 87 21.5t90 54.5t97.5 93.5t108.5 140.5q-4 74 -8 169t-15.5 191t-31 181t-52 138.5t-79.5 64.5q-9 2 -17 2q-42 0 -96 -44l-23 31q94 78 162 83q7 1 14 1q59 0 99 -39q45 -43 72.5 -123t43 -173t22.5 -187.5t11 -165.5q41 68 79 143.5t69.5 149 t56.5 140t41 114.5q9 26 9 44q0 21 -13 30q-23 16 -62 16v37l107 -3l119 3v-37q-29 0 -52.5 -16.5t-43.5 -80.5q-33 -102 -84.5 -218.5t-115 -233.5t-138 -224.5t-153.5 -190.5t-161 -132q-79 -47 -156 -47h-6z" />
<glyph unicode="Z" horiz-adv-x="837" d="M39 0v37q20 20 62 65t96.5 105.5t116 132.5t121 143.5t113.5 139t93 122.5h-266q-55 0 -90 -10t-56.5 -28.5t-34 -45t-20.5 -59.5h-35q10 61 14.5 109.5t8.5 113.5h33q4 -27 32.5 -30.5t106.5 -3.5h463q-168 -248 -318.5 -432.5t-269.5 -309.5q45 -3 102 -3q28 0 60 1 q94 2 184 6q55 2 95 46t73 122l33 -10q-10 -43 -15.5 -70.5t-8.5 -49t-6 -42t-7 -51.5l-131 4z" />
<glyph unicode="[" horiz-adv-x="694" d="M45 -351.5q-10 17.5 2 83.5l258 1417q10 41 30.5 51t55.5 10h227v-36h-122q-35 0 -56.5 -9.5t-29.5 -52.5l-238 -1341q-10 -66 -1 -84.5t58 -18.5h123v-37h-248q-49 0 -59 17.5z" />
<glyph unicode="\" horiz-adv-x="917" d="M63 1133h84l707 -1573h-86z" />
<glyph unicode="]" horiz-adv-x="647" d="M14 -334h123q35 0 56.5 10.5t27.5 51.5l238 1341q12 66 2 84t-58 18h-122v39h247q47 0 57.5 -18t-1.5 -84l-258 -1417q-8 -41 -30 -51.5t-56 -10.5h-226v37z" />
<glyph unicode="^" horiz-adv-x="808" d="M53 223q4 43 27.5 107.5t63.5 134.5t97.5 136.5t132.5 114.5t167 70.5t200 4.5l-118 -584q-6 -31 -10.5 -58.5t-2.5 -49t14.5 -32t37.5 -6.5q14 4 33.5 12.5t41.5 24.5l23 -28q-39 -29 -73 -53.5t-81 -24.5t-80.5 23.5t-40.5 70.5q-154 -86 -241.5 -92t-131.5 30.5 t-53.5 96t-5.5 102.5zM173 191.5q5 -60.5 40 -92t102.5 -24.5t173.5 70l127 598q-78 2 -146.5 -34.5t-124.5 -98t-97 -137.5t-60.5 -148.5t-14.5 -133zM383 993q4 27 22.5 43.5t40.5 16.5q23 0 39.5 -16.5t12.5 -45.5q-4 -23 -21.5 -40t-40.5 -17q-27 0 -42 17.5t-11 41.5z M641 993q4 27 22.5 43.5t43.5 16.5q23 0 37 -16.5t10 -45.5q-4 -23 -20.5 -40t-39.5 -17t-39 17.5t-14 41.5z" />
<glyph unicode="_" horiz-adv-x="1024" d="M0 -117h1024v-73h-1024v73z" />
<glyph unicode="`" horiz-adv-x="358" d="M41 1167l119 39l170 -225l-37 -25z" />
<glyph unicode="a" horiz-adv-x="808" d="M53 223q4 43 27.5 107.5t63.5 134.5t97.5 136.5t132.5 114.5t167 70q51 12 107 13q45 0 93 -8l-118 -584q-6 -31 -10.5 -58.5t-2.5 -49t14.5 -32t37.5 -6.5q14 4 33.5 12.5t41.5 24.5l23 -28q-39 -29 -73 -53.5t-81 -24.5t-80.5 23.5t-40.5 70.5q-153 -86 -241 -92 q-12 -1 -24 -1q-70 -1 -108 31q-44 36 -54 96q-7 42 -6 76q0 14 1 27zM173 192q5 -60 40 -92q29 -26 79 -26q12 0 24 1q68 7 173 70l127 598h-8q-72 -1 -138 -35q-68 -36 -124.5 -97.5t-97.5 -137.5q-40 -77 -60 -149q-16 -58 -16 -107q0 -13 1 -25z" />
<glyph unicode="b" horiz-adv-x="729" d="M57 0v37q41 0 61.5 18.5t31.5 77.5l94 551q4 25 -3.5 39t-20.5 21.5t-30.5 8.5t-31.5 1v37l252 8h23q48 -1 84 -7q44 -8 71.5 -23t42 -36.5t20.5 -46.5q5 -21 5 -41q0 -25 -8 -48q-15 -42 -44 -75t-62.5 -55.5t-58.5 -30.5q31 -6 61.5 -20.5t55.5 -38t38 -57.5 q9 -24 9 -54q0 -14 -2 -28q-30 -240 -385 -240h-18zM260 135q-2 -10 -2 -19q0 -40 28 -58q20 -13 50 -13q23 0 51 8q41 12 74 43t51 70t18 81t-22.5 75.5t-72.5 53.5q-39 16 -95 16q-17 0 -35 -1zM317 446l26 -2q47 0 85 18q48 22 76 58.5t36 79.5q3 15 4 30q0 26 -10 49 q-16 37 -57 57q-29 15 -73 14q-17 0 -37 -2z" />
<glyph unicode="c" horiz-adv-x="792" d="M51 358q2 86 36 170t95.5 148.5t146.5 102.5q73 33 161 33q14 0 28 -1q49 -2 80 -8t52.5 -13.5t33.5 -13.5t25 -8q29 -6 39 23h43l-43 -207h-41q0 51 -16.5 84.5t-44.5 54t-62.5 30t-71.5 9.5q-61 0 -124.5 -28.5t-113.5 -83.5q-52 -54 -82 -133q-25 -66 -25 -145 q0 -16 1 -32q6 -158 82 -233.5t188 -79.5h11q75 0 135 49q64 53 96 145h41l-47 -194q-25 2 -47.5 -6.5t-51 -17.5t-65.5 -16q-29 -5 -67 -5h-23q-84 2 -152.5 29.5t-117.5 76.5q-48 50 -74 118q-25 64 -25 140v12z" />
<glyph unicode="d" horiz-adv-x="892" d="M55 0v37q45 0 65.5 15.5t31.5 80.5l96 561q4 27 -5.5 39t-24.5 16.5t-32.5 4.5h-27.5v37l225 4h17q111 0 192 -25q88 -27 144 -76q58 -48 84 -116q23 -59 22 -126v-20q-6 -121 -53.5 -204t-118.5 -135q-70 -51 -157 -75q-80 -22 -161 -22h-14zM264 137q-3 -18 -3 -31 q1 -32 17 -44q24 -16 84 -15q59 0 118 21.5t108 70.5t83 128t42 192q1 14 1 28q0 62 -22 109q-28 57 -78 93q-52 37 -116 49q-34 7 -69 6q-31 0 -62 -5z" />
<glyph unicode="e" horiz-adv-x="741" d="M53 217q-1 14 -1 28q0 89 33 175q38 98 102.5 177t147.5 131t167 69q26 5 49 5q43 0 74 -18q47 -26 60 -76q5 -18 5 -37q0 -34 -14 -74q-22 -62 -84 -117.5t-165 -96.5t-251 -47q-6 -25 -8 -65v-12q0 -35 9 -69q11 -40 40 -73t82 -43q18 -4 39 -4q42 0 98 14 q84 20 205 88l25 -35q-131 -84 -227.5 -118.5t-164.5 -35.5h-5q-64 -1 -104 23q-42 24 -66.5 61t-34 78t-11.5 72zM188 399h13q75 1 135 21q66 22 114 58t78 79q32 43 44 82q8 24 7 43q0 12 -3 24q-8 28 -35 31q-6 1 -13 1q-26 0 -64 -12q-48 -15 -100.5 -56t-100.5 -107.5 t-75 -163.5z" />
<glyph unicode="f" horiz-adv-x="507" d="M53 -385q37 188 62.5 341t47 284t43 248.5t50.5 238.5h-137v64h149q27 119 74 215t108.5 165.5t136.5 111.5t156 54q21 3 39 3q34 0 60 -10q41 -15 51 -38q9 -18 9 -33q0 -10 -4 -19q-9 -23 -34 -30q-14 -4 -27.5 4.5t-29.5 20.5t-39 21.5t-53 7.5q-51 -4 -101.5 -38 t-94.5 -95.5t-80 -147.5t-56 -192h168v-66h-184l-211 -1067z" />
<glyph unicode="g" horiz-adv-x="845" d="M2 -205q0 49 29.5 85t76 64.5t103.5 50t115 44.5q-25 12 -64 32.5t-75.5 57.5t-63.5 92q-25 51 -25 128v11q0 86 36 170t98.5 148.5t149.5 101.5q75 32 161 32q14 0 28 -1q49 -2 80 -8t52.5 -13.5t35 -13.5t25.5 -8q16 -4 24.5 3t12.5 20h43l-41 -207h-41 q0 51 -16.5 84.5t-44 54t-62.5 30t-74 9.5q-61 0 -124.5 -28.5t-114 -82t-80.5 -131.5q-24 -65 -24 -143q0 -16 1 -33q4 -66 49 -112t111 -81.5t139.5 -67.5t135 -65.5t100.5 -74.5q34 -36 34 -82q0 -8 -1 -15q-6 -55 -46 -100t-101.5 -75.5t-137.5 -47t-154 -16.5 q-74 0 -138 10t-111.5 33.5t-74 59.5t-26.5 85zM131 -201q6 -51 68.5 -89t167.5 -44q16 -1 31 -1q41 0 79 7q53 11 93 31.5t64 48.5q23 25 23 55q0 35 -21 63q-20 24 -55.5 44t-87 39.5t-114.5 46.5q-137 -41 -195 -96q-54 -49 -54 -95q0 -5 1 -10z" />
<glyph unicode="h" horiz-adv-x="964" d="M33 0v37q41 0 60.5 15.5t29.5 80.5l94 551q4 25 -2 38t-18.5 20.5t-27.5 9.5t-28 2v37l140 -3l131 3v-37q-31 0 -52.5 -10.5t-27.5 -51.5l-43 -254h409l41 250q6 43 -19.5 54.5t-49.5 11.5v37l141 -3l119 3v-37q-31 0 -50.5 -10.5t-27.5 -59.5l-96 -561q-4 -23 -4 -39 q0 -20 6 -30q10 -18 63 -17v-37l-125 2l-139 -2v37q45 0 60.5 18.5t25.5 77.5l47 252h-409l-43 -246q-5 -35 -5 -56q0 -19 4 -28q9 -18 58 -18v-37l-143 2z" />
<glyph unicode="i" horiz-adv-x="489" d="M53 0v37q41 0 60.5 15.5t29.5 80.5l95 551q4 25 -2.5 38t-18.5 20.5t-27.5 9.5t-27.5 2v37l139 -3l135 3v-37q-35 0 -56.5 -10.5t-27.5 -51.5l-94 -553q-5 -35 -5 -56q0 -19 4 -28q9 -18 58 -18v-37l-143 2z" />
<glyph unicode="j" horiz-adv-x="479" d="M-113 -227l15 47q55 0 97 33.5t72.5 89t52 124t34.5 140.5l86 477q4 25 -3.5 38t-19.5 20.5t-26.5 9.5t-26.5 2v37l139 -3l129 3v-37q-31 0 -51 -10.5t-29 -51.5l-67 -381q-23 -117 -58.5 -219t-86 -176t-114.5 -114q-51 -31 -110 -31q-16 0 -33 2z" />
<glyph unicode="k" horiz-adv-x="774" d="M47 0v37q20 0 33.5 3t24 13t17.5 28.5t13 51.5l146 778q4 25 -2.5 38.5t-18.5 19.5t-27.5 8t-27.5 2v37l139 -2l131 2v-37q-31 0 -51.5 -9t-28.5 -52l-94 -480q23 2 60.5 34t105.5 110q39 43 67.5 75.5t43 54t10.5 32t-31 10.5v37l115 -5l108 5v-37q-43 0 -73.5 -18.5 t-68.5 -58.5t-93.5 -101.5t-145.5 -149.5q10 0 30 -28.5t46.5 -71.5t59 -94.5t67.5 -94.5t74 -71.5t76 -28.5v-37q-25 -5 -49 -5q-43 -1 -79 15q-58 24 -104.5 68.5t-84.5 99.5t-65.5 104.5t-47 81t-29.5 29.5l-41 -254q-6 -37 -6 -59q0 -17 4 -25q8 -18 57 -18v-37l-141 2z " />
<glyph unicode="l" horiz-adv-x="708" d="M47 0v37q20 0 33.5 3t24 13t17.5 28.5t13 51.5l146 778q4 25 -2.5 38.5t-18.5 19.5t-27.5 8t-27.5 2v37l139 -2l139 2v-37q-37 0 -59.5 -9t-28.5 -52l-155 -861q18 0 51 -9t73 -17q39 -9 82 -15q27 -4 52 -3q15 0 30 1q39 4 71 23.5t46 60.5h39q-6 -63 -37 -95t-77 -42 q-33 -7 -74 -7q-16 0 -34 1q-62 4 -130 14.5t-140.5 20.5t-144.5 10z" />
<glyph unicode="m" horiz-adv-x="1335" d="M68 719q82 66 142 78q14 3 27 2q41 0 65 -29q29 -36 29 -113v-15q-3 -89 -50 -226q111 199 218 292q103 89 180 89h7q88 -4 98 -89q2 -14 2 -31q0 -87 -45 -257q109 197 219 291q101 87 175 87q6 0 12 -1q49 -4 71 -43q20 -36 19 -97v-12q-2 -70 -23.5 -167t-54.5 -220 q-26 -93 -25 -146v-6q1 -45 37 -45q7 0 15 2q12 4 30.5 11.5t40.5 23.5l21 -28q-37 -29 -72 -53.5t-80 -24.5q-23 0 -45 9t-36.5 31.5t-17.5 62.5v13q0 37 13 89q31 113 54.5 211t31.5 166q3 24 2 45q0 36 -8 57q-9 22 -31 22q-11 0 -26 -6q-33 -12 -91.5 -64.5t-121 -140.5 t-119.5 -210.5t-88 -276.5q-22 -4 -39 -4q-30 0 -42 12q-10 10 -10 33q0 20 7 49q43 178 73 301t38 195q3 24 3 43q-1 37 -11 54q-9 15 -28 15q-14 0 -34 -8q-29 -10 -86 -64.5t-120.5 -144.5t-124 -212t-95.5 -269q-21 -4 -37 -4q-27 0 -39 12q-9 9 -10 30q0 20 8 50 q45 188 82 322q37 136 46 212q2 20 2 35q0 45 -18 59q-7 5 -19 4q-29 0 -85 -32z" />
<glyph unicode="n" horiz-adv-x="978" d="M49 0v37q27 0 43.5 3t26.5 12t16 27.5t12 49.5l84 481q4 23 4 42q0 16 -3 29q-7 28 -23 44t-40 22.5t-48 6.5v37l84 -3l98 3l389 -609l82 482q4 23 4 40q0 28 -10 36q-16 14 -70 14v37l125 -3l109 3v-37q-23 0 -37 -3t-23.5 -13.5t-14.5 -29t-11 -51.5l-101 -561 q14 -25 28.5 -42t33.5 -17v-37h-55l-76 -2l-379 588l-82 -461q-4 -21 -4 -36q1 -27 13 -37q18 -14 79 -15v-37l-129 2z" />
<glyph unicode="o" d="M53 365q6 90 45 170.5t99.5 140t138.5 94.5q74 33 155 33h9q168 -5 261 -105q81 -87 81 -233q0 -22 -2 -45q-6 -90 -45 -171t-99 -141q-61 -60 -138 -94q-73 -33 -154 -32h-9q-84 2 -151.5 28.5t-111.5 75.5q-44 50 -66 120q-16 51 -15 112q0 23 2 47zM180 348 q-1 -12 0 -23q0 -67 20 -123q24 -66 66 -108q44 -41 100 -54q21 -5 42 -5q37 0 77 14q39 14 78 47t71 83t52.5 115.5t24.5 143.5q1 12 1 24q0 68 -20 124q-24 66 -67 106q-43 42 -99 56q-22 6 -45 5q-36 0 -75 -14t-78 -47t-71 -83t-52.5 -115.5t-24.5 -145.5z" />
<glyph unicode="p" horiz-adv-x="708" d="M16 -193q41 0 59.5 15.5t30.5 81.5l44 262q-18 -6 -42 -12.5t-77 -14.5l20 41q47 12 68.5 23.5t38.5 17.5l82 463q4 25 -3.5 38t-19.5 20.5t-27.5 9.5t-27.5 2v37l221 6h18q144 0 203 -61q54 -57 54 -149q0 -15 -1 -30q-10 -104 -108 -197.5t-275 -158.5l-53 -291 q-7 -36 -7 -58q0 -18 5 -26q10 -19 57 -19v-38l-141 2l-119 -2v38zM285 268q100 41 158.5 95.5t84.5 110.5q22 48 22 94q0 7 -1 14q-4 53 -29.5 91t-66.5 57q-23 10 -47 10q-20 0 -41 -7z" />
<glyph unicode="q" horiz-adv-x="960" d="M51 360q8 90 47 171t99.5 140.5t137.5 94.5q73 33 154 33h9q84 -2 150.5 -30t111.5 -77t66 -118q14 -50 14 -110q0 -23 -2 -48q-6 -72 -31 -137.5t-66 -120t-95 -96.5t-116 -62q78 -27 141.5 -60.5t122 -63.5t118.5 -50q49 -15 105 -15q15 0 30 1v-39q-44 -3 -83 -3 q-78 0 -138 13q-89 20 -160.5 54t-138 70t-150.5 54q-98 23 -164 59.5t-103.5 87t-51.5 114.5q-9 43 -9 93q0 22 2 45zM178 344q-1 -12 -1 -23q0 -67 21 -123q23 -65 66 -107t100 -55q20 -5 42 -5q37 0 77 14q39 12 78 45t71 83t52.5 115.5t24.5 145.5q1 12 1 24 q0 68 -20 124q-24 65 -66 106t-100 56q-22 5 -45 5q-37 0 -76 -14t-77.5 -47t-69.5 -83t-52.5 -115.5t-25.5 -145.5z" />
<glyph unicode="r" horiz-adv-x="786" d="M47 0v37q41 0 59.5 15.5t28.5 80.5l98 551q4 25 -3 38t-19 20.5t-27.5 9.5t-27.5 2v37l186 4h37q58 -1 99 -5q54 -6 89 -21t52.5 -36.5t27.5 -48.5q9 -25 9 -50q0 -21 -7 -42q-14 -45 -45 -85t-74 -72t-84 -50q20 -37 53 -95.5t73 -114.5t86.5 -97t93.5 -41v-37 q-26 -6 -50 -6q-44 0 -84 20q-60 30 -109.5 84t-87.5 121.5t-69 126.5q-23 -8 -38 -13t-31 -9l-31 -185q-7 -38 -7 -60q0 -17 4 -24q9 -18 58 -18v-37l-141 2zM289 385q100 27 157.5 67t79.5 82q17 32 18 63q0 10 -2 19q-7 41 -34 71q-27 29 -68 45q-26 10 -54 10 q-16 0 -34 -3z" />
<glyph unicode="s" horiz-adv-x="632" d="M57 0l27 211h43q8 -90 51 -127t92 -37q53 0 97.5 37t44.5 96q0 33 -11.5 58.5t-29 47t-38 39t-40.5 35.5q-16 16 -40 36t-45.5 46.5t-35.5 61.5t-14 82q0 45 18.5 84t49 68.5t71.5 47t88 17.5q55 -4 104 -27q18 -8 32 -2t18 17h36l-20 -197h-41q-23 86 -59.5 120 t-77.5 34q-43 0 -75 -33t-32 -86q0 -35 11.5 -62.5t30 -51t40 -42t41.5 -37.5q18 -16 42 -35.5t43.5 -45t32.5 -58.5t13 -74q0 -47 -21.5 -88t-57 -72.5t-84 -50t-103.5 -18.5q-63 0 -129 26l-35 -20h-37z" />
<glyph unicode="t" horiz-adv-x="604" d="M129 727v64h129l43 155h98l-28 -155h180v-64h-191l-75 -391q-6 -33 -15.5 -74t-10.5 -79v-7q0 -32 8 -58q9 -28 40 -35q8 -2 18 -2q29 1 69 15q56 20 143 76l24 -35q-100 -78 -172 -111.5t-120 -35.5h-8q-43 0 -67 20q-26 22 -38 60q-12 34 -12 74v6q1 44 10 83l96 494 h-121z" />
<glyph unicode="u" horiz-adv-x="841" d="M88 754v37l150 -3l135 3v-37q-35 0 -56.5 -10.5t-27.5 -51.5l-72 -416q-6 -35 -6 -65q0 -66 30 -107q44 -59 132 -61h12q33 0 61 9q34 11 63.5 39t51 75t35.5 119l72 379q5 24 5 41q1 27 -11 35q-18 14 -72 14v37l125 -3l110 3v-37q-23 0 -37 -3t-23 -12.5t-14.5 -28 t-11.5 -51.5l-71 -380q-16 -92 -48 -150.5t-73 -92.5t-93 -48q-45 -12 -93 -11h-15q-78 2 -129 25t-79 60q-30 36 -38 86q-4 23 -3 49q0 29 5 61l72 426q4 25 -2 38t-19.5 20.5t-31 9.5t-33.5 2z" />
<glyph unicode="v" horiz-adv-x="763" d="M47 754v37l139 -3l140 3v-37q-12 0 -27.5 -2t-28 -9.5t-18.5 -20.5t-2 -38l104 -553l244 533q13 30 13 49q-1 17 -11 25q-22 16 -61 16v37l106 -3l123 3v-37q-31 0 -51.5 -18.5t-48.5 -78.5l-316 -657h-76l-141 692q-8 41 -29.5 51.5t-58.5 10.5z" />
<glyph unicode="w" horiz-adv-x="1257" d="M63 721q113 70 171 79q13 2 24 2q40 0 58 -26q17 -25 17 -69q0 -13 -2 -29q-7 -66 -25.5 -144.5t-39.5 -160.5q-22 -83 -32 -151q-5 -34 -5.5 -62t5.5 -49q10 -43 57 -43q33 0 75 34.5t84 91t82.5 126t71.5 137.5q14 49 31.5 113.5t39 121t51.5 90.5q23 27 53 27 q9 0 18 -2q27 -6 29 -44q0 -7 1 -13q0 -33 -10 -76q-12 -51 -36.5 -105.5t-55.5 -97.5q-20 -74 -34.5 -146.5t-16.5 -130.5v-14q0 -49 13 -81q14 -33 50 -33h6q35 0 76 33.5t81 87t77 120t66.5 132t48 125t20.5 100.5q1 15 1 27q0 35 -9 47q-12 16 -51 16v37l106 -3l119 3 v-37q-29 0 -52.5 -24.5t-43.5 -90.5q-59 -190 -125 -318t-132.5 -206t-130.5 -108q-52 -24 -100 -24q-11 0 -22 1q-41 4 -65.5 28.5t-37 61.5t-12.5 84t10 100q-27 -51 -65.5 -106.5t-85.5 -96.5q-46 -41 -102 -63q-31 -12 -64 -12q-26 0 -53 8q-55 14 -74 62q-16 41 -16 93 q1 9 1 19q4 64 23 140.5t39 149t34 134.5q12 51 13 85q0 7 -1 13q-2 37 -32 42q-3 1 -7 1q-30 0 -93 -37z" />
<glyph unicode="x" horiz-adv-x="825" d="M-6 0v37q41 0 71.5 26.5t81.5 83.5l201 228l-137 262q-35 66 -72 91.5t-67 25.5v37l129 -3h153v-36q-35 2 -51 -12q-6 -5 -6 -15q0 -19 18 -55l109 -209l176 209q36 41 36 59q0 5 -4 9q-14 16 -67 16v37h117h125v-37q-41 0 -73 -27t-81 -84l-198 -233q20 -41 60 -103.5 t88 -123t102.5 -103.5t105.5 -43v-37q-25 -4 -49 -4q-58 0 -108 24q-70 34 -123.5 89t-90.5 116.5t-61 102.5l-180 -209q-35 -41 -35 -59q0 -4 3 -8q13 -14 66 -15v-37h-116h-123z" />
<glyph unicode="y" horiz-adv-x="835" d="M-66 -389l19 67q43 4 87 21.5t90 54.5t97.5 93.5t108.5 140.5q-4 74 -8 169t-15.5 191t-31 181t-52 138.5t-79.5 64.5q-9 2 -17 2q-42 0 -96 -44l-23 31q94 78 162 83q7 1 14 1q59 0 99 -39q45 -43 72.5 -123t43 -173t22.5 -187.5t11 -165.5q41 68 79 143.5t69.5 149 t56.5 140t41 114.5q9 26 9 44q0 21 -13 30q-23 16 -62 16v37l107 -3l119 3v-37q-29 0 -52.5 -16.5t-43.5 -80.5q-33 -102 -84.5 -218.5t-115 -233.5t-138 -224.5t-153.5 -190.5t-161 -132q-79 -47 -156 -47h-6z" />
<glyph unicode="z" horiz-adv-x="837" d="M39 0v37q20 20 62 65t96.5 105.5t116 132.5t121 143.5t113.5 139t93 122.5h-266q-55 0 -90 -10t-56.5 -28.5t-34 -45t-20.5 -59.5h-35q10 61 14.5 109.5t8.5 113.5h33q4 -27 32.5 -30.5t106.5 -3.5h463q-168 -248 -318.5 -432.5t-269.5 -309.5q45 -3 102 -3q28 0 60 1 q94 2 184 6q55 2 95 46t73 122l33 -10q-10 -43 -15.5 -70.5t-8.5 -49t-6 -42t-7 -51.5l-131 4z" />
<glyph unicode="{" horiz-adv-x="647" d="M57 356v72q20 2 52 34t62 81t50.5 112.5t20.5 128.5q0 27 3 52.5t7 50.5q8 51 28.5 98t57.5 81t92 54.5t137 20.5l2 -41q-78 -10 -120.5 -43t-64.5 -80t-27 -106.5t-5 -122.5q0 -39 -8 -74q-10 -55 -29.5 -105.5t-43 -89.5t-48 -62.5t-43.5 -23.5q27 -2 47.5 -58 t20.5 -140q0 -20 -2 -41t-6 -43q-4 -18 -7.5 -37t-9.5 -37q-18 -61 -36.5 -121.5t-16.5 -111t29.5 -84t101.5 -44.5v-34q-133 2 -184 52t-51 128q0 29 6 63q8 51 28 115q20 66 23.5 129.5t-5.5 113.5t-25.5 80.5t-35.5 32.5z" />
<glyph unicode="|" horiz-adv-x="753" d="M340 -440v1573h76v-1573h-76z" />
<glyph unicode="}" horiz-adv-x="647" d="M98 -317q78 10 121 42.5t64.5 81t26.5 107.5t5 121q0 18 2 36.5t7 37.5q10 55 30.5 105t44 89t47 62.5t41.5 25.5q-25 2 -46 57.5t-21 137.5q0 47 8 86q4 20 8 37.5t8 35.5q20 61 38 122t17 111t-30 84t-102 44v35q68 0 112.5 -14.5t72.5 -39t40 -57.5t12 -72 q0 -31 -6 -61q-6 -29 -13 -57.5t-18 -57.5q-20 -66 -23 -129t6 -112t25.5 -81t34.5 -34v-72q-20 -2 -52 -32.5t-60.5 -81t-50 -114t-21.5 -128.5q0 -27 -3 -52.5t-7 -49.5q-10 -51 -29.5 -97.5t-56.5 -81t-92.5 -55t-137.5 -20.5z" />
<glyph unicode="~" horiz-adv-x="827" d="M59 373l21 80q76 27 151 26q88 0 175 -33q45 -16 92 -25t96 -9q47 0 92 7t80 23l-18 -80q-31 -12 -69 -17t-79 -5q-47 0 -96 8t-92 25q-84 33 -179 33q-86 0 -174 -33z" />
<glyph unicode="&#xa1;" horiz-adv-x="1122" d="M53 -387q37 188 62.5 340.5t47 284t43 250t50.5 239.5h-137v64h149q18 80 58.5 153.5t94.5 135t121.5 104.5t140.5 60.5t147.5 6t146.5 -60.5l-84 -399h182v-66h-196l-76 -389q-6 -33 -15.5 -74t-10.5 -79t8.5 -65.5t40 -34.5t85 12.5t144.5 76.5l24 -35 q-100 -78 -171.5 -111.5t-119 -35.5t-75 20.5t-38.5 59t-11 81t8 82.5l96 492h-401l-211 -1069zM385 791h391l88 342q-72 43 -149.5 35.5t-145 -55.5t-118 -131t-66.5 -191z" />
<glyph unicode="&#xa2;" horiz-adv-x="792" d="M51 358q2 82 34 162t88 144.5t134 104.5t174 42l19 135h75l-18 -137q72 -8 101.5 -22.5t50.5 -18.5q29 -6 39 23h43l-43 -207h-41q0 51 -16.5 84.5t-44.5 54t-62.5 30t-71.5 9.5q-61 0 -124.5 -28.5t-114 -83t-81 -133.5t-24.5 -177q6 -158 82 -233.5t188 -79.5 q82 -4 145.5 49t96.5 145h41l-47 -194q-23 2 -44.5 -5.5t-48 -15.5t-60.5 -16t-81 -8l-22 -162h-76l23 166q-72 8 -130.5 38.5t-99.5 80t-63.5 113t-20.5 140.5z" />
<glyph unicode="&#xa3;" horiz-adv-x="772" d="M29 2v45q29 0 47 3t29.5 12.5t18.5 28t13 50.5l62 330h-95v49h103l6 33q25 137 58.5 235.5t80.5 161t109.5 91t146.5 28.5q37 0 72 -6t63 -14l-18 -142h-41q0 68 -33 89.5t-92 21.5q-47 0 -82 -30t-59.5 -82t-43 -125.5t-32.5 -159.5l-18 -101h221v-49h-230l-73 -412 q18 0 51 -9t73 -18t83 -15.5t81.5 -1.5t69.5 24.5t47 60.5h39q-6 -63 -37 -95t-78 -43t-109.5 -6t-133 15.5t-147.5 20.5t-152 10z" />
<glyph unicode="&#xa7;" horiz-adv-x="739" d="M57 0l27 211h43q8 -90 51 -126t92 -36q53 0 97.5 35t44.5 88q0 20 -13.5 39.5t-34 38t-46 35t-48.5 32.5q-16 12 -36.5 31t-38 43.5t-28.5 57t-11 73.5q0 66 37.5 118t97.5 79q-18 25 -30.5 57.5t-12.5 73.5q0 45 18.5 86t50 70.5t72.5 47t88 15.5q49 0 105 -25 q16 -8 29.5 -1.5t17.5 14.5h37l-21 -195h-41q-20 84 -58 119t-79 35t-73 -30t-32 -81t17.5 -91t77.5 -83q18 -12 44.5 -29.5t52.5 -42t44 -55.5t18 -69q0 -66 -47 -119.5t-118 -75.5q29 -27 50 -59.5t21 -75.5t-20.5 -81t-56 -67.5t-84 -46t-103.5 -16.5q-63 0 -129 26 l-35 -20h-37zM270 575q0 -51 17.5 -91t77.5 -83q6 -4 13 -10t17 -10q45 10 77 43t32 76q0 20 -13.5 39.5t-34 38t-46 36t-48.5 33.5q-8 8 -18 15.5t-20 17.5q-23 -16 -38.5 -43t-15.5 -62z" />
<glyph unicode="&#xa8;" horiz-adv-x="505" d="M100 993q4 27 21.5 43.5t40.5 16.5t39 -16.5t12 -45.5q-4 -23 -21.5 -40t-39.5 -17q-25 0 -40.5 17.5t-11.5 41.5zM358 993q4 27 22.5 43.5t43.5 16.5q23 0 37 -16.5t10 -45.5q-4 -23 -20.5 -40t-38.5 -17q-25 0 -41.5 17.5t-12.5 41.5z" />
<glyph unicode="&#xa9;" horiz-adv-x="1736" d="M109 383q0 158 59 297t162.5 242.5t242 163t295.5 59.5q158 0 296.5 -59.5t241.5 -163t163.5 -242.5t60.5 -297t-60.5 -296t-163.5 -241.5t-241.5 -163t-296.5 -59.5t-296 59.5t-241.5 163t-162.5 241.5t-59 296zM201 383q0 -139 52 -260t143 -212t212 -143.5t260 -52.5 q137 0 260 52.5t213.5 143.5t143.5 212t53 260q0 137 -53 260t-143.5 213t-213 143.5t-260.5 53.5q-139 0 -260 -53.5t-212 -143.5t-143 -213t-52 -260zM469 358q2 86 36 170t95.5 148.5t146 102.5t189.5 32q47 -2 79 -8t52 -13.5t33.5 -13.5t25.5 -8q31 -6 37 23h43 l-41 -207h-41q0 51 -16 84.5t-44 54t-62.5 30t-71.5 9.5q-61 0 -125 -28.5t-115 -83t-80.5 -133.5t-25.5 -177q8 -160 82.5 -234.5t189.5 -78.5q82 -4 144.5 49t95.5 145h43l-47 -194q-25 2 -47.5 -6.5t-51 -17.5t-66.5 -16t-91 -5q-84 2 -152 29.5t-116 76.5t-74.5 117.5 t-24.5 152.5z" />
<glyph unicode="&#xab;" horiz-adv-x="946" d="M94 319l10 72l449 207l-14 -88l-361 -158l318 -159l-13 -78zM389 319l10 72l449 207l-14 -88l-361 -158l318 -159l-11 -78z" />
<glyph unicode="&#xad;" horiz-adv-x="604" d="M162 377l10 67h268l-6 -67h-272z" />
<glyph unicode="&#xae;" horiz-adv-x="1736" d="M109 383q0 158 59 297t162.5 242.5t242 163t295.5 59.5q158 0 296.5 -59.5t241.5 -163t163.5 -242.5t60.5 -297t-60.5 -296t-163.5 -241.5t-241.5 -163t-296.5 -59.5t-296 59.5t-241.5 163t-162.5 241.5t-59 296zM201 383q0 -139 52 -260t143 -212t212 -143.5t260 -52.5 q137 0 260 52.5t213.5 143.5t143.5 212t53 260q0 137 -53 260t-143.5 213t-213 143.5t-260.5 53.5q-139 0 -260 -53.5t-212 -143.5t-143 -213t-52 -260zM528 0v37q20 0 35 3t25 13t17 28.5t13 51.5l97 551q4 25 -3 38t-19.5 20.5t-27 9.5t-26.5 2v37l186 4q82 2 136.5 -4.5 t88 -21.5t51 -36.5t27.5 -48.5q16 -47 3 -92t-44.5 -85t-73.5 -72t-83 -50q20 -37 53 -95.5t73 -114.5t85 -97t92 -41v-37q-74 -16 -134.5 13.5t-109.5 84t-87 122t-68 126.5q-41 -14 -70 -22l-31 -185q-10 -66 -1 -84t56 -18v-37l-141 2zM770 385q100 27 157.5 67t80 81.5 t15.5 82.5t-33.5 71t-67.5 45.5t-88 6.5z" />
<glyph unicode="&#xaf;" horiz-adv-x="395" d="M41 956v74h303v-74h-303z" />
<glyph unicode="&#xb0;" horiz-adv-x="657" d="M92 539q-10 43 0 92q8 49 36 92t65.5 74.5t85 50t96.5 18.5t88 -18.5t64.5 -50t34.5 -74.5t1 -92q-10 -49 -37.5 -92t-65.5 -75t-85 -50.5t-96 -18.5t-88 18.5t-64 50.5t-35 75zM197 635q-16 -78 11.5 -133.5t80.5 -55.5q27 0 54.5 14.5t50 40t40 60.5t25.5 74 q16 78 -11.5 133t-82.5 55q-27 0 -53.5 -14t-50 -40t-40 -60.5t-24.5 -73.5z" />
<glyph unicode="&#xb1;" horiz-adv-x="815" d="M53 223q4 43 27.5 107.5t63.5 134.5t97.5 136.5t132.5 114.5t167 70.5t200 4.5l-118 -584q-6 -31 -10.5 -58.5t-2.5 -49t14.5 -32t37.5 -6.5q14 4 33.5 12.5t41.5 24.5l23 -28q-39 -29 -73 -53.5t-81 -24.5t-80.5 23.5t-40.5 70.5q-154 -86 -241.5 -92t-131.5 30.5 t-53.5 96t-5.5 102.5zM173 191.5q5 -60.5 40 -92t102.5 -24.5t173.5 70l127 598q-78 2 -146.5 -34.5t-124.5 -98t-97 -137.5t-60.5 -148.5t-14.5 -133zM477 981l168 225l121 -39l-252 -211z" />
<glyph unicode="&#xb4;" horiz-adv-x="358" d="M63 981l168 225l119 -39l-252 -211z" />
<glyph unicode="&#xb6;" horiz-adv-x="876" d="M70 662q0 59 22.5 112t62.5 93t93 62.5t112 22.5l258 2q66 0 82.5 -19.5t16.5 -64.5v-870h-115v836q0 43 -16.5 61t-81.5 18h-29v-1185q0 -29 2 -46.5t11.5 -26.5t28 -13t50.5 -4v-39l-114 4h-78l-111 -4v39q33 0 52.5 4t28.5 14t12 26.5t3 43.5v643q-59 0 -112 22.5 t-93 62.5t-62.5 92t-22.5 114z" />
<glyph unicode="&#xb8;" horiz-adv-x="393" d="M10 -330l13 31q20 -4 31.5 -4h27.5q68 0 108.5 24.5t40.5 67.5q0 31 -21.5 47.5t-57.5 16.5h-15l82 145h64l-41 -82q86 -28 86 -106q0 -31 -17.5 -58.5t-47.5 -48t-69.5 -32t-84.5 -11.5q-23 0 -42.5 2t-56.5 8z" />
<glyph unicode="&#xba;" horiz-adv-x="706" d="M74 256l10 68h475l-10 -68h-475zM137 539q-10 43 0 92q8 49 36 92t67 74.5t85 50t95 18.5t88 -18.5t64.5 -50t34.5 -74.5t1 -92q-10 -49 -37.5 -92t-65.5 -75t-85 -50.5t-96 -18.5t-88 18.5t-64 50.5t-35 75zM242 635q-16 -78 11.5 -133.5t80.5 -55.5q27 0 54.5 14.5 t50 40t40 60.5t25.5 74q16 78 -11.5 133t-80.5 55q-55 0 -104.5 -55t-65.5 -133z" />
<glyph unicode="&#xbb;" horiz-adv-x="946" d="M94 115l15 88l360 159l-317 160l10 76l391 -205l-10 -71zM389 115l14 88l361 159l-318 160l13 76l389 -205l-10 -71z" />
<glyph unicode="&#xbf;" horiz-adv-x="856" d="M150 166q0 49 18 92t49 82t68 71.5t73 61.5q33 25 70 57.5t72 77.5t67.5 106.5t59.5 145.5h53v-39q0 -117 -43 -216t-135 -171q-49 -39 -93 -73.5t-77 -68.5t-52.5 -71t-19.5 -82q0 -31 12.5 -51t33 -32.5t43 -17.5t44.5 -5q68 0 126.5 30.5t70.5 106.5h41l-6 -135 q-72 -29 -133.5 -40t-110.5 -11q-61 0 -104.5 15t-72 42t-41.5 58.5t-13 66.5zM610 1094q6 31 33 53t59 22q31 0 49.5 -22t12.5 -53q-6 -33 -32.5 -55.5t-57.5 -22.5q-33 0 -50.5 22.5t-13.5 55.5z" />
<glyph unicode="&#xc3;" horiz-adv-x="808" d="M53 223q4 43 27.5 107.5t63.5 134.5t97.5 136.5t132.5 114.5t167 70.5t200 4.5l-118 -584q-6 -31 -10.5 -58.5t-2.5 -49t14.5 -32t37.5 -6.5q14 4 33.5 12.5t41.5 24.5l23 -28q-39 -29 -73 -53.5t-81 -24.5t-80.5 23.5t-40.5 70.5q-154 -86 -241.5 -92t-131.5 30.5 t-53.5 96t-5.5 102.5zM173 191.5q5 -60.5 40 -92t102.5 -24.5t173.5 70l127 598q-78 2 -146.5 -34.5t-124.5 -98t-97 -137.5t-60.5 -148.5t-14.5 -133zM385 971l14 73q35 23 80 23q18 0 35.5 -7t34.5 -16q16 -8 36.5 -15t41.5 -7q43 0 78 20l-15 -71q-35 -20 -78 -21 q-20 0 -39.5 6.5t-35.5 16.5q-16 8 -35 15t-37 7q-20 0 -42 -6t-38 -18z" />
<glyph unicode="&#xc4;" horiz-adv-x="808" d="M53 223q4 43 27.5 107.5t63.5 134.5t97.5 136.5t132.5 114.5t167 70.5t200 4.5l-118 -584q-6 -31 -10.5 -58.5t-2.5 -49t14.5 -32t37.5 -6.5q14 4 33.5 12.5t41.5 24.5l23 -28q-39 -29 -73 -53.5t-81 -24.5t-80.5 23.5t-40.5 70.5q-154 -86 -241.5 -92t-131.5 30.5 t-53.5 96t-5.5 102.5zM173 191.5q5 -60.5 40 -92t102.5 -24.5t173.5 70l127 598q-78 2 -146.5 -34.5t-124.5 -98t-97 -137.5t-60.5 -148.5t-14.5 -133zM406 1167l120 39l168 -225l-35 -25z" />
<glyph unicode="&#xc5;" horiz-adv-x="808" d="M53 223q4 43 27.5 107.5t63.5 134.5t97.5 136.5t132.5 114.5t167 70.5t200 4.5l-118 -584q-6 -31 -10.5 -58.5t-2.5 -49t14.5 -32t37.5 -6.5q14 4 33.5 12.5t41.5 24.5l23 -28q-39 -29 -73 -53.5t-81 -24.5t-80.5 23.5t-40.5 70.5q-154 -86 -241.5 -92t-131.5 30.5 t-53.5 96t-5.5 102.5zM173 191.5q5 -60.5 40 -92t102.5 -24.5t173.5 70l127 598q-78 2 -146.5 -34.5t-124.5 -98t-97 -137.5t-60.5 -148.5t-14.5 -133zM469 1059q8 45 44 76.5t81 31.5t72.5 -31.5t21.5 -76.5q-6 -47 -42 -78t-83 -31q-45 0 -72.5 31t-21.5 78zM524 1059 q-4 -23 10.5 -38t36.5 -15q23 0 40.5 15t21.5 38t-10.5 38t-36.5 15q-23 0 -40.5 -15.5t-21.5 -37.5z" />
<glyph unicode="&#xc6;" horiz-adv-x="1210" d="M53 223q4 43 26.5 107.5t62.5 134.5t97.5 136.5t132 114.5t167 70.5t200.5 4.5l-26 -134q59 53 125.5 91t132.5 49q78 14 124 -12.5t58 -78t-12.5 -117t-88 -129t-166 -116.5t-247.5 -78q0 -33 7 -67.5t26.5 -63.5t53.5 -48t86 -18t126 24.5t172 78.5l25 -35 q-147 -94 -251 -127t-172.5 -25.5t-107.5 44.5t-57 82q-109 -72 -188.5 -99.5t-136 -24.5t-91.5 29.5t-53.5 63.5t-23.5 76t-1 67zM174 180.5q8 -59.5 48 -86t115 -12.5t191 90q-10 47 -6 97t10 81l82 393q-78 4 -148.5 -35.5t-126.5 -102t-97 -140.5t-58.5 -151.5 t-9.5 -133zM643 330q129 25 219 89t136 133t50.5 124t-38.5 61q-31 4 -85.5 -16.5t-110.5 -69.5t-104 -129t-67 -192z" />
<glyph unicode="&#xc7;" horiz-adv-x="792" d="M51 358q2 86 36 170t95.5 148.5t146.5 102.5t189 32q49 -2 80 -8t52.5 -13.5t33.5 -13.5t25 -8q29 -6 39 23h43l-43 -207h-41q0 51 -16.5 84.5t-44.5 54t-62.5 30t-71.5 9.5q-61 0 -124.5 -28.5t-114 -83t-81 -133.5t-24.5 -177q6 -158 82 -233.5t188 -79.5 q82 -4 145.5 49t96.5 145h41l-47 -194q-23 2 -45.5 -5.5t-48 -16.5t-60.5 -16t-82 -7l-35 -66q86 -29 86 -106q0 -31 -17 -58.5t-47 -48t-70 -32t-85 -11.5q-23 0 -41 2t-57 8l12 31q23 -4 33 -4h27q68 0 108.5 24.5t40.5 67.5q0 63 -80 64h-14l76 131q-74 8 -134.5 38.5 t-103.5 80t-65.5 114t-20.5 141.5z" />
<glyph unicode="&#xc8;" horiz-adv-x="741" d="M53 217q-6 104 32 202.5t102.5 177.5t147.5 131t167 69q76 14 123 -12.5t60 -76t-9.5 -111.5t-84 -117.5t-164.5 -96.5t-251 -47q-6 -25 -8 -65t9 -80.5t40 -73.5t82 -43.5t137 10t205 88.5l25 -35q-131 -84 -227.5 -118.5t-164 -35.5t-109.5 23.5t-66.5 61t-34 77.5 t-11.5 72zM188 399q82 -2 147.5 20.5t114 58.5t79 79t43 82t4.5 66.5t-35 31.5q-29 4 -77 -11t-100.5 -56t-100.5 -107.5t-75 -163.5zM334 1167l121 39l168 -225l-37 -25z" />
<glyph unicode="&#xc9;" horiz-adv-x="741" d="M53 217q-6 104 32 202.5t102.5 177.5t147.5 131t167 69q76 14 123 -12.5t60 -76t-9.5 -111.5t-84 -117.5t-164.5 -96.5t-251 -47q-6 -25 -8 -65t9 -80.5t40 -73.5t82 -43.5t137 10t205 88.5l25 -35q-131 -84 -227.5 -118.5t-164 -35.5t-109.5 23.5t-66.5 61t-34 77.5 t-11.5 72zM188 399q82 -2 147.5 20.5t114 58.5t79 79t43 82t4.5 66.5t-35 31.5q-29 4 -77 -11t-100.5 -56t-100.5 -107.5t-75 -163.5zM360 981l168 225l119 -39l-252 -211z" />
<glyph unicode="&#xca;" horiz-adv-x="765" d="M53 217q-6 104 32 202.5t102.5 177.5t147.5 131t167 69q76 14 123 -12.5t60 -76t-9.5 -111.5t-84 -117.5t-164.5 -96.5t-251 -47q-6 -25 -8 -65t9 -80.5t40 -73.5t82 -43.5t137 10t205 88.5l25 -35q-131 -84 -227.5 -118.5t-164 -35.5t-109.5 23.5t-66.5 61t-34 77.5 t-11.5 72zM188 399q82 -2 147.5 20.5t114 58.5t79 79t43 82t4.5 66.5t-35 31.5q-29 4 -77 -11t-100.5 -56t-100.5 -107.5t-75 -163.5zM276 981l240 223h88l111 -223l-47 -25l-138 144l-219 -144z" />
<glyph unicode="&#xcb;" horiz-adv-x="780" d="M53 217q-6 104 32 202.5t102.5 177.5t147.5 131t167 69q76 14 123 -12.5t60 -76t-9.5 -111.5t-84 -117.5t-164.5 -96.5t-251 -47q-6 -25 -8 -65t9 -80.5t40 -73.5t82 -43.5t137 10t205 88.5l25 -35q-131 -84 -227.5 -118.5t-164 -35.5t-109.5 23.5t-66.5 61t-34 77.5 t-11.5 72zM188 399q82 -2 147.5 20.5t114 58.5t79 79t43 82t4.5 66.5t-35 31.5q-29 4 -77 -11t-100.5 -56t-100.5 -107.5t-75 -163.5zM356 993q4 27 21.5 43.5t42.5 16.5q23 0 38 -16.5t11 -45.5q-4 -23 -21.5 -40t-39.5 -17q-25 0 -40.5 17.5t-11.5 41.5zM614 993 q4 27 22.5 43.5t43.5 16.5q23 0 37 -16.5t10 -45.5q-4 -23 -20.5 -40t-38.5 -17q-23 0 -40.5 17.5t-13.5 41.5z" />
<glyph unicode="&#xcc;" horiz-adv-x="489" d="M53 0v37q41 0 60.5 15.5t29.5 80.5l95 551q4 25 -2.5 38t-18.5 20.5t-27.5 9.5t-27.5 2v37l139 -3l135 3v-37q-35 0 -56.5 -10.5t-27.5 -51.5l-94 -553q-10 -66 -1 -84t58 -18v-37l-143 2zM150 1167l118 39l168 -225l-35 -25z" />
<glyph unicode="&#xcd;" horiz-adv-x="561" d="M53 0v37q41 0 60.5 15.5t29.5 80.5l95 551q4 25 -2.5 38t-18.5 20.5t-27.5 9.5t-27.5 2v37l139 -3l135 3v-37q-35 0 -56.5 -10.5t-27.5 -51.5l-94 -553q-10 -66 -1 -84t58 -18v-37l-143 2zM219 981l168 225l121 -39l-252 -211z" />
<glyph unicode="&#xce;" horiz-adv-x="589" d="M53 0v37q41 0 60.5 15.5t29.5 80.5l95 551q4 25 -2.5 38t-18.5 20.5t-27.5 9.5t-27.5 2v37l139 -3l135 3v-37q-35 0 -56.5 -10.5t-27.5 -51.5l-94 -553q-10 -66 -1 -84t58 -18v-37l-143 2zM98 981l238 223h88l113 -223l-48 -25l-137 144l-221 -144z" />
<glyph unicode="&#xcf;" horiz-adv-x="579" d="M53 0v37q41 0 60.5 15.5t29.5 80.5l95 551q4 25 -2.5 38t-18.5 20.5t-27.5 9.5t-27.5 2v37l139 -3l135 3v-37q-35 0 -56.5 -10.5t-27.5 -51.5l-94 -553q-10 -66 -1 -84t58 -18v-37l-143 2zM156 993q4 27 21.5 43.5t39.5 16.5q23 0 39 -16.5t12 -45.5q-4 -23 -21.5 -40 t-39.5 -17q-25 0 -40 17.5t-11 41.5zM414 993q4 27 22.5 43.5t42.5 16.5q23 0 37 -16.5t10 -45.5q-4 -23 -21.5 -40t-39.5 -17q-23 0 -39 17.5t-12 41.5z" />
<glyph unicode="&#xd1;" horiz-adv-x="978" d="M49 0v37q27 0 43.5 3t26.5 12t16 27.5t12 49.5l84 481q8 43 1 71t-23 44t-40 22.5t-48 6.5v37l84 -3l98 3l389 -609l82 482q10 61 -6 75.5t-70 14.5v37l125 -3l109 3v-37q-23 0 -37 -3t-23.5 -13.5t-14.5 -29t-11 -51.5l-101 -561q14 -25 28.5 -42t33.5 -17v-37h-55 l-76 -2l-379 588l-82 -461q-10 -59 8.5 -73.5t79.5 -14.5v-37l-129 2zM412 971l14 73q35 23 80 23q18 0 36.5 -7t35.5 -16q16 -8 35.5 -15t39.5 -7q43 0 78 20l-12 -71q-37 -20 -78 -21q-23 0 -42 6.5t-36 16.5q-16 8 -33.5 15t-35.5 7q-23 0 -44.5 -6t-37.5 -18z" />
<glyph unicode="&#xd2;" d="M53 365q6 90 45 170.5t99.5 140t138.5 94.5t164 33q168 -4 261 -104.5t79 -278.5q-6 -90 -45 -171t-99.5 -140.5t-137.5 -94t-163 -32.5q-84 2 -151.5 28.5t-111.5 75.5t-65.5 119.5t-13.5 159.5zM180 348q-4 -80 19.5 -145.5t66.5 -107.5t99.5 -55t119.5 9q39 14 78 47 t71 83t52.5 115.5t24.5 143.5q4 82 -19.5 147.5t-66.5 106.5t-99.5 55.5t-119.5 -8.5q-39 -14 -78 -47t-71 -83t-52.5 -115.5t-24.5 -145.5zM381 1167l121 39l168 -225l-37 -25z" />
<glyph unicode="&#xd3;" d="M53 365q6 90 45 170.5t99.5 140t138.5 94.5t164 33q168 -4 261 -104.5t79 -278.5q-6 -90 -45 -171t-99.5 -140.5t-137.5 -94t-163 -32.5q-84 2 -151.5 28.5t-111.5 75.5t-65.5 119.5t-13.5 159.5zM180 348q-4 -80 19.5 -145.5t66.5 -107.5t99.5 -55t119.5 9q39 14 78 47 t71 83t52.5 115.5t24.5 143.5q4 82 -19.5 147.5t-66.5 106.5t-99.5 55.5t-119.5 -8.5q-39 -14 -78 -47t-71 -83t-52.5 -115.5t-24.5 -145.5zM422 981l168 225l121 -39l-252 -211z" />
<glyph unicode="&#xd4;" d="M53 365q6 90 45 170.5t99.5 140t138.5 94.5t164 33q168 -4 261 -104.5t79 -278.5q-6 -90 -45 -171t-99.5 -140.5t-137.5 -94t-163 -32.5q-84 2 -151.5 28.5t-111.5 75.5t-65.5 119.5t-13.5 159.5zM180 348q-4 -80 19.5 -145.5t66.5 -107.5t99.5 -55t119.5 9q39 14 78 47 t71 83t52.5 115.5t24.5 143.5q4 82 -19.5 147.5t-66.5 106.5t-99.5 55.5t-119.5 -8.5q-39 -14 -78 -47t-71 -83t-52.5 -115.5t-24.5 -145.5zM291 981l237 223h88l111 -223l-45 -25l-139 144l-219 -144z" />
<glyph unicode="&#xd5;" d="M53 365q6 90 45 170.5t99.5 140t138.5 94.5t164 33q168 -4 261 -104.5t79 -278.5q-6 -90 -45 -171t-99.5 -140.5t-137.5 -94t-163 -32.5q-84 2 -151.5 28.5t-111.5 75.5t-65.5 119.5t-13.5 159.5zM180 348q-4 -80 19.5 -145.5t66.5 -107.5t99.5 -55t119.5 9q39 14 78 47 t71 83t52.5 115.5t24.5 143.5q4 82 -19.5 147.5t-66.5 106.5t-99.5 55.5t-119.5 -8.5q-39 -14 -78 -47t-71 -83t-52.5 -115.5t-24.5 -145.5zM365 971l14 73q35 23 80 23q18 0 35.5 -7t33.5 -16q16 -8 37 -15t41 -7q43 0 78 20l-14 -71q-35 -20 -78 -21q-20 0 -40 6.5 t-36 16.5q-16 8 -34.5 15t-37.5 7q-20 0 -41.5 -6t-37.5 -18z" />
<glyph unicode="&#xd6;" d="M53 365q6 90 45 170.5t99.5 140t138.5 94.5t164 33q168 -4 261 -104.5t79 -278.5q-6 -90 -45 -171t-99.5 -140.5t-137.5 -94t-163 -32.5q-84 2 -151.5 28.5t-111.5 75.5t-65.5 119.5t-13.5 159.5zM180 348q-4 -80 19.5 -145.5t66.5 -107.5t99.5 -55t119.5 9q39 14 78 47 t71 83t52.5 115.5t24.5 143.5q4 82 -19.5 147.5t-66.5 106.5t-99.5 55.5t-119.5 -8.5q-39 -14 -78 -47t-71 -83t-52.5 -115.5t-24.5 -145.5zM326 993q4 27 22.5 43.5t40.5 16.5q23 0 39 -16.5t12 -45.5q-4 -23 -21.5 -40t-39.5 -17q-27 0 -42 17.5t-11 41.5zM584 993 q4 27 23.5 43.5t41.5 16.5q23 0 38 -16.5t11 -45.5q-4 -23 -21.5 -40t-39.5 -17q-23 0 -39 17.5t-14 41.5z" />
<glyph unicode="&#xd8;" horiz-adv-x="899" d="M55 365q6 90 45 170.5t99.5 140t138.5 94.5t164 33q25 0 48 -4l46 -8l70 155h75l-79 -176q94 -43 142 -132t38 -218q-6 -90 -45 -171t-99.5 -140.5t-137.5 -94t-163 -32.5q-23 2 -42 3t-40 5l-73 -166h-80l86 186q-102 41 -153.5 131t-39.5 224zM182 348 q-4 -86 22.5 -154.5t74.5 -109.5l290 649q-35 16 -75.5 19.5t-85.5 -13.5q-39 -14 -78 -47t-71 -83t-52.5 -115.5t-24.5 -145.5zM340 47q70 -27 147 2q39 14 78 47t71 83t52.5 115.5t24.5 143.5q4 82 -19.5 147.5t-66.5 106.5z" />
<glyph unicode="&#xd9;" horiz-adv-x="841" d="M88 754v37l150 -3l135 3v-37q-35 0 -56.5 -10.5t-27.5 -51.5l-72 -416q-20 -113 24 -172t132 -61q39 -2 72.5 9t63.5 39t51.5 75t35.5 119l72 379q12 61 -6.5 75.5t-71.5 14.5v37l125 -3l110 3v-37q-23 0 -37 -3t-23 -12.5t-14.5 -28t-11.5 -51.5l-71 -380 q-16 -92 -48 -150.5t-73 -92.5t-92.5 -47.5t-108.5 -11.5q-78 2 -129 25t-79.5 59.5t-37 87t1.5 109.5l72 426q4 25 -2 38t-19.5 20.5t-31 9.5t-33.5 2zM332 1167l119 39l167 -225l-34 -25z" />
<glyph unicode="&#xda;" horiz-adv-x="841" d="M88 754v37l150 -3l135 3v-37q-35 0 -56.5 -10.5t-27.5 -51.5l-72 -416q-20 -113 24 -172t132 -61q39 -2 72.5 9t63.5 39t51.5 75t35.5 119l72 379q12 61 -6.5 75.5t-71.5 14.5v37l125 -3l110 3v-37q-23 0 -37 -3t-23 -12.5t-14.5 -28t-11.5 -51.5l-71 -380 q-16 -92 -48 -150.5t-73 -92.5t-92.5 -47.5t-108.5 -11.5q-78 2 -129 25t-79.5 59.5t-37 87t1.5 109.5l72 426q4 25 -2 38t-19.5 20.5t-31 9.5t-33.5 2zM397 981l168 225l121 -39l-252 -211z" />
<glyph unicode="&#xdb;" horiz-adv-x="841" d="M88 754v37l150 -3l135 3v-37q-35 0 -56.5 -10.5t-27.5 -51.5l-72 -416q-20 -113 24 -172t132 -61q39 -2 72.5 9t63.5 39t51.5 75t35.5 119l72 379q12 61 -6.5 75.5t-71.5 14.5v37l125 -3l110 3v-37q-23 0 -37 -3t-23 -12.5t-14.5 -28t-11.5 -51.5l-71 -380 q-16 -92 -48 -150.5t-73 -92.5t-92.5 -47.5t-108.5 -11.5q-78 2 -129 25t-79.5 59.5t-37 87t1.5 109.5l72 426q4 25 -2 38t-19.5 20.5t-31 9.5t-33.5 2zM260 981l240 223h88l110 -223l-47 -25l-137 144l-219 -144z" />
<glyph unicode="&#xdc;" horiz-adv-x="847" d="M88 754v37l150 -3l135 3v-37q-35 0 -56.5 -10.5t-27.5 -51.5l-72 -416q-20 -113 24 -172t132 -61q39 -2 72.5 9t63.5 39t51.5 75t35.5 119l72 379q12 61 -6.5 75.5t-71.5 14.5v37l125 -3l110 3v-37q-23 0 -37 -3t-23 -12.5t-14.5 -28t-11.5 -51.5l-71 -380 q-16 -92 -48 -150.5t-73 -92.5t-92.5 -47.5t-108.5 -11.5q-78 2 -129 25t-79.5 59.5t-37 87t1.5 109.5l72 426q4 25 -2 38t-19.5 20.5t-31 9.5t-33.5 2zM309 993q4 27 21.5 43.5t40.5 16.5t39 -16.5t12 -45.5q-4 -23 -21.5 -40t-40.5 -17q-27 0 -41 17.5t-10 41.5zM565 993 q4 27 23.5 43.5t42.5 16.5t38 -16.5t11 -45.5q-4 -23 -21.5 -40t-40.5 -17t-39 17.5t-14 41.5z" />
<glyph unicode="&#xdf;" horiz-adv-x="956" d="M23 -385q35 188 62.5 350t52 305.5t48 271.5t50.5 249q27 119 73.5 215t109 165.5t136.5 111.5t156 54q90 12 115.5 -16.5t14 -78.5t-45 -110.5t-64.5 -111.5q-70 -115 -86 -197t-1 -142t53 -109.5t76 -99.5t67.5 -108.5t29.5 -140.5q0 -47 -21.5 -88t-57 -72.5t-84 -50 t-103.5 -18.5q-63 0 -129 26l-35 -20h-37l25 211h45q8 -90 51 -127t92 -37q53 0 96.5 37t43.5 96q0 55 -29 99.5t-64.5 88.5t-71.5 94t-51.5 119.5t1 163t82.5 224.5q25 51 51 104t40.5 96t9.5 70t-42 25q-51 -4 -101.5 -38t-94.5 -95.5t-78.5 -147.5t-55.5 -192l-227 -1133 z" />
<glyph unicode="&#xe0;" horiz-adv-x="808" d="M53 223q4 43 27.5 107.5t63.5 134.5t97.5 136.5t132.5 114.5t167 70.5t200 4.5l-118 -584q-6 -31 -10.5 -58.5t-2.5 -49t14.5 -32t37.5 -6.5q14 4 33.5 12.5t41.5 24.5l23 -28q-39 -29 -73 -53.5t-81 -24.5t-80.5 23.5t-40.5 70.5q-154 -86 -241.5 -92t-131.5 30.5 t-53.5 96t-5.5 102.5zM173 191.5q5 -60.5 40 -92t102.5 -24.5t173.5 70l127 598q-78 2 -146.5 -34.5t-124.5 -98t-97 -137.5t-60.5 -148.5t-14.5 -133zM406 1167l120 39l168 -225l-35 -25z" />
<glyph unicode="&#xe1;" horiz-adv-x="815" d="M53 223q4 43 27.5 107.5t63.5 134.5t97.5 136.5t132.5 114.5t167 70.5t200 4.5l-118 -584q-6 -31 -10.5 -58.5t-2.5 -49t14.5 -32t37.5 -6.5q14 4 33.5 12.5t41.5 24.5l23 -28q-39 -29 -73 -53.5t-81 -24.5t-80.5 23.5t-40.5 70.5q-154 -86 -241.5 -92t-131.5 30.5 t-53.5 96t-5.5 102.5zM173 191.5q5 -60.5 40 -92t102.5 -24.5t173.5 70l127 598q-78 2 -146.5 -34.5t-124.5 -98t-97 -137.5t-60.5 -148.5t-14.5 -133zM477 981l168 225l121 -39l-252 -211z" />
<glyph unicode="&#xe2;" horiz-adv-x="837" d="M53 223q4 43 27.5 107.5t63.5 134.5t97.5 136.5t132.5 114.5t167 70.5t200 4.5l-118 -584q-6 -31 -10.5 -58.5t-2.5 -49t14.5 -32t37.5 -6.5q14 4 33.5 12.5t41.5 24.5l23 -28q-39 -29 -73 -53.5t-81 -24.5t-80.5 23.5t-40.5 70.5q-154 -86 -241.5 -92t-131.5 30.5 t-53.5 96t-5.5 102.5zM173 191.5q5 -60.5 40 -92t102.5 -24.5t173.5 70l127 598q-78 2 -146.5 -34.5t-124.5 -98t-97 -137.5t-60.5 -148.5t-14.5 -133zM350 981l238 223h88l110 -223l-45 -25l-139 144l-219 -144z" />
<glyph unicode="&#xe3;" horiz-adv-x="808" d="M53 223q4 43 27.5 107.5t63.5 134.5t97.5 136.5t132.5 114.5t167 70.5t200 4.5l-118 -584q-6 -31 -10.5 -58.5t-2.5 -49t14.5 -32t37.5 -6.5q14 4 33.5 12.5t41.5 24.5l23 -28q-39 -29 -73 -53.5t-81 -24.5t-80.5 23.5t-40.5 70.5q-154 -86 -241.5 -92t-131.5 30.5 t-53.5 96t-5.5 102.5zM173 191.5q5 -60.5 40 -92t102.5 -24.5t173.5 70l127 598q-78 2 -146.5 -34.5t-124.5 -98t-97 -137.5t-60.5 -148.5t-14.5 -133zM385 971l14 73q35 23 80 23q18 0 35.5 -7t34.5 -16q16 -8 36.5 -15t41.5 -7q43 0 78 20l-15 -71q-35 -20 -78 -21 q-20 0 -39.5 6.5t-35.5 16.5q-16 8 -35 15t-37 7q-20 0 -42 -6t-38 -18z" />
<glyph unicode="&#xe4;" horiz-adv-x="808" d="M53 223q4 43 27.5 107.5t63.5 134.5t97.5 136.5t132.5 114.5t167 70.5t200 4.5l-118 -584q-6 -31 -10.5 -58.5t-2.5 -49t14.5 -32t37.5 -6.5q14 4 33.5 12.5t41.5 24.5l23 -28q-39 -29 -73 -53.5t-81 -24.5t-80.5 23.5t-40.5 70.5q-154 -86 -241.5 -92t-131.5 30.5 t-53.5 96t-5.5 102.5zM173 191.5q5 -60.5 40 -92t102.5 -24.5t173.5 70l127 598q-78 2 -146.5 -34.5t-124.5 -98t-97 -137.5t-60.5 -148.5t-14.5 -133zM383 993q4 27 22.5 43.5t40.5 16.5q23 0 39.5 -16.5t12.5 -45.5q-4 -23 -21.5 -40t-40.5 -17q-27 0 -42 17.5t-11 41.5z M641 993q4 27 22.5 43.5t43.5 16.5q23 0 37 -16.5t10 -45.5q-4 -23 -20.5 -40t-39.5 -17t-39 17.5t-14 41.5z" />
<glyph unicode="&#xe5;" horiz-adv-x="808" d="M53 223q4 43 27.5 107.5t63.5 134.5t97.5 136.5t132.5 114.5t167 70.5t200 4.5l-118 -584q-6 -31 -10.5 -58.5t-2.5 -49t14.5 -32t37.5 -6.5q14 4 33.5 12.5t41.5 24.5l23 -28q-39 -29 -73 -53.5t-81 -24.5t-80.5 23.5t-40.5 70.5q-154 -86 -241.5 -92t-131.5 30.5 t-53.5 96t-5.5 102.5zM173 191.5q5 -60.5 40 -92t102.5 -24.5t173.5 70l127 598q-78 2 -146.5 -34.5t-124.5 -98t-97 -137.5t-60.5 -148.5t-14.5 -133zM469 1059q8 45 44 76.5t81 31.5t72.5 -31.5t21.5 -76.5q-6 -47 -42 -78t-83 -31q-45 0 -72.5 31t-21.5 78zM524 1059 q-4 -23 10.5 -38t36.5 -15q23 0 40.5 15t21.5 38t-10.5 38t-36.5 15q-23 0 -40.5 -15.5t-21.5 -37.5z" />
<glyph unicode="&#xe6;" horiz-adv-x="1210" d="M53 223q4 43 26.5 107.5t62.5 134.5t97.5 136.5t132 114.5t167 70.5t200.5 4.5l-26 -134q59 53 125.5 91t132.5 49q78 14 124 -12.5t58 -78t-12.5 -117t-88 -129t-166 -116.5t-247.5 -78q0 -33 7 -67.5t26.5 -63.5t53.5 -48t86 -18t126 24.5t172 78.5l25 -35 q-147 -94 -251 -127t-172.5 -25.5t-107.5 44.5t-57 82q-109 -72 -188.5 -99.5t-136 -24.5t-91.5 29.5t-53.5 63.5t-23.5 76t-1 67zM174 180.5q8 -59.5 48 -86t115 -12.5t191 90q-10 47 -6 97t10 81l82 393q-78 4 -148.5 -35.5t-126.5 -102t-97 -140.5t-58.5 -151.5 t-9.5 -133zM643 330q129 25 219 89t136 133t50.5 124t-38.5 61q-31 4 -85.5 -16.5t-110.5 -69.5t-104 -129t-67 -192z" />
<glyph unicode="&#xe7;" horiz-adv-x="792" d="M51 358q2 86 36 170t95.5 148.5t146.5 102.5t189 32q49 -2 80 -8t52.5 -13.5t33.5 -13.5t25 -8q29 -6 39 23h43l-43 -207h-41q0 51 -16.5 84.5t-44.5 54t-62.5 30t-71.5 9.5q-61 0 -124.5 -28.5t-114 -83t-81 -133.5t-24.5 -177q6 -158 82 -233.5t188 -79.5 q82 -4 145.5 49t96.5 145h41l-47 -194q-23 2 -45.5 -5.5t-48 -16.5t-60.5 -16t-82 -7l-35 -66q86 -29 86 -106q0 -31 -17 -58.5t-47 -48t-70 -32t-85 -11.5q-23 0 -41 2t-57 8l12 31q23 -4 33 -4h27q68 0 108.5 24.5t40.5 67.5q0 63 -80 64h-14l76 131q-74 8 -134.5 38.5 t-103.5 80t-65.5 114t-20.5 141.5z" />
<glyph unicode="&#xe8;" horiz-adv-x="741" d="M53 217q-6 104 32 202.5t102.5 177.5t147.5 131t167 69q76 14 123 -12.5t60 -76t-9.5 -111.5t-84 -117.5t-164.5 -96.5t-251 -47q-6 -25 -8 -65t9 -80.5t40 -73.5t82 -43.5t137 10t205 88.5l25 -35q-131 -84 -227.5 -118.5t-164 -35.5t-109.5 23.5t-66.5 61t-34 77.5 t-11.5 72zM188 399q82 -2 147.5 20.5t114 58.5t79 79t43 82t4.5 66.5t-35 31.5q-29 4 -77 -11t-100.5 -56t-100.5 -107.5t-75 -163.5zM334 1167l121 39l168 -225l-37 -25z" />
<glyph unicode="&#xe9;" horiz-adv-x="741" d="M53 217q-6 104 32 202.5t102.5 177.5t147.5 131t167 69q76 14 123 -12.5t60 -76t-9.5 -111.5t-84 -117.5t-164.5 -96.5t-251 -47q-6 -25 -8 -65t9 -80.5t40 -73.5t82 -43.5t137 10t205 88.5l25 -35q-131 -84 -227.5 -118.5t-164 -35.5t-109.5 23.5t-66.5 61t-34 77.5 t-11.5 72zM188 399q82 -2 147.5 20.5t114 58.5t79 79t43 82t4.5 66.5t-35 31.5q-29 4 -77 -11t-100.5 -56t-100.5 -107.5t-75 -163.5zM360 981l168 225l119 -39l-252 -211z" />
<glyph unicode="&#xea;" horiz-adv-x="765" d="M53 217q-6 104 32 202.5t102.5 177.5t147.5 131t167 69q76 14 123 -12.5t60 -76t-9.5 -111.5t-84 -117.5t-164.5 -96.5t-251 -47q-6 -25 -8 -65t9 -80.5t40 -73.5t82 -43.5t137 10t205 88.5l25 -35q-131 -84 -227.5 -118.5t-164 -35.5t-109.5 23.5t-66.5 61t-34 77.5 t-11.5 72zM188 399q82 -2 147.5 20.5t114 58.5t79 79t43 82t4.5 66.5t-35 31.5q-29 4 -77 -11t-100.5 -56t-100.5 -107.5t-75 -163.5zM276 981l240 223h88l111 -223l-47 -25l-138 144l-219 -144z" />
<glyph unicode="&#xeb;" horiz-adv-x="780" d="M53 217q-6 104 32 202.5t102.5 177.5t147.5 131t167 69q76 14 123 -12.5t60 -76t-9.5 -111.5t-84 -117.5t-164.5 -96.5t-251 -47q-6 -25 -8 -65t9 -80.5t40 -73.5t82 -43.5t137 10t205 88.5l25 -35q-131 -84 -227.5 -118.5t-164 -35.5t-109.5 23.5t-66.5 61t-34 77.5 t-11.5 72zM188 399q82 -2 147.5 20.5t114 58.5t79 79t43 82t4.5 66.5t-35 31.5q-29 4 -77 -11t-100.5 -56t-100.5 -107.5t-75 -163.5zM356 993q4 27 21.5 43.5t42.5 16.5q23 0 38 -16.5t11 -45.5q-4 -23 -21.5 -40t-39.5 -17q-25 0 -40.5 17.5t-11.5 41.5zM614 993 q4 27 22.5 43.5t43.5 16.5q23 0 37 -16.5t10 -45.5q-4 -23 -20.5 -40t-38.5 -17q-23 0 -40.5 17.5t-13.5 41.5z" />
<glyph unicode="&#xec;" horiz-adv-x="489" d="M53 0v37q41 0 60.5 15.5t29.5 80.5l95 551q4 25 -2.5 38t-18.5 20.5t-27.5 9.5t-27.5 2v37l139 -3l135 3v-37q-35 0 -56.5 -10.5t-27.5 -51.5l-94 -553q-10 -66 -1 -84t58 -18v-37l-143 2zM150 1167l118 39l168 -225l-35 -25z" />
<glyph unicode="&#xed;" horiz-adv-x="561" d="M53 0v37q41 0 60.5 15.5t29.5 80.5l95 551q4 25 -2.5 38t-18.5 20.5t-27.5 9.5t-27.5 2v37l139 -3l135 3v-37q-35 0 -56.5 -10.5t-27.5 -51.5l-94 -553q-10 -66 -1 -84t58 -18v-37l-143 2zM219 981l168 225l121 -39l-252 -211z" />
<glyph unicode="&#xee;" horiz-adv-x="589" d="M53 0v37q41 0 60.5 15.5t29.5 80.5l95 551q4 25 -2.5 38t-18.5 20.5t-27.5 9.5t-27.5 2v37l139 -3l135 3v-37q-35 0 -56.5 -10.5t-27.5 -51.5l-94 -553q-10 -66 -1 -84t58 -18v-37l-143 2zM98 981l238 223h88l113 -223l-48 -25l-137 144l-221 -144z" />
<glyph unicode="&#xef;" horiz-adv-x="579" d="M53 0v37q41 0 60.5 15.5t29.5 80.5l95 551q4 25 -2.5 38t-18.5 20.5t-27.5 9.5t-27.5 2v37l139 -3l135 3v-37q-35 0 -56.5 -10.5t-27.5 -51.5l-94 -553q-10 -66 -1 -84t58 -18v-37l-143 2zM156 993q4 27 21.5 43.5t39.5 16.5q23 0 39 -16.5t12 -45.5q-4 -23 -21.5 -40 t-39.5 -17q-25 0 -40 17.5t-11 41.5zM414 993q4 27 22.5 43.5t42.5 16.5q23 0 37 -16.5t10 -45.5q-4 -23 -21.5 -40t-39.5 -17q-23 0 -39 17.5t-12 41.5z" />
<glyph unicode="&#xf1;" horiz-adv-x="978" d="M49 0v37q27 0 43.5 3t26.5 12t16 27.5t12 49.5l84 481q8 43 1 71t-23 44t-40 22.5t-48 6.5v37l84 -3l98 3l389 -609l82 482q10 61 -6 75.5t-70 14.5v37l125 -3l109 3v-37q-23 0 -37 -3t-23.5 -13.5t-14.5 -29t-11 -51.5l-101 -561q14 -25 28.5 -42t33.5 -17v-37h-55 l-76 -2l-379 588l-82 -461q-10 -59 8.5 -73.5t79.5 -14.5v-37l-129 2zM412 971l14 73q35 23 80 23q18 0 36.5 -7t35.5 -16q16 -8 35.5 -15t39.5 -7q43 0 78 20l-12 -71q-37 -20 -78 -21q-23 0 -42 6.5t-36 16.5q-16 8 -33.5 15t-35.5 7q-23 0 -44.5 -6t-37.5 -18z" />
<glyph unicode="&#xf2;" d="M53 365q6 90 45 170.5t99.5 140t138.5 94.5t164 33q168 -4 261 -104.5t79 -278.5q-6 -90 -45 -171t-99.5 -140.5t-137.5 -94t-163 -32.5q-84 2 -151.5 28.5t-111.5 75.5t-65.5 119.5t-13.5 159.5zM180 348q-4 -80 19.5 -145.5t66.5 -107.5t99.5 -55t119.5 9q39 14 78 47 t71 83t52.5 115.5t24.5 143.5q4 82 -19.5 147.5t-66.5 106.5t-99.5 55.5t-119.5 -8.5q-39 -14 -78 -47t-71 -83t-52.5 -115.5t-24.5 -145.5zM381 1167l121 39l168 -225l-37 -25z" />
<glyph unicode="&#xf3;" d="M53 365q6 90 45 170.5t99.5 140t138.5 94.5t164 33q168 -4 261 -104.5t79 -278.5q-6 -90 -45 -171t-99.5 -140.5t-137.5 -94t-163 -32.5q-84 2 -151.5 28.5t-111.5 75.5t-65.5 119.5t-13.5 159.5zM180 348q-4 -80 19.5 -145.5t66.5 -107.5t99.5 -55t119.5 9q39 14 78 47 t71 83t52.5 115.5t24.5 143.5q4 82 -19.5 147.5t-66.5 106.5t-99.5 55.5t-119.5 -8.5q-39 -14 -78 -47t-71 -83t-52.5 -115.5t-24.5 -145.5zM422 981l168 225l121 -39l-252 -211z" />
<glyph unicode="&#xf4;" d="M53 365q6 90 45 170.5t99.5 140t138.5 94.5t164 33q168 -4 261 -104.5t79 -278.5q-6 -90 -45 -171t-99.5 -140.5t-137.5 -94t-163 -32.5q-84 2 -151.5 28.5t-111.5 75.5t-65.5 119.5t-13.5 159.5zM180 348q-4 -80 19.5 -145.5t66.5 -107.5t99.5 -55t119.5 9q39 14 78 47 t71 83t52.5 115.5t24.5 143.5q4 82 -19.5 147.5t-66.5 106.5t-99.5 55.5t-119.5 -8.5q-39 -14 -78 -47t-71 -83t-52.5 -115.5t-24.5 -145.5zM291 981l237 223h88l111 -223l-45 -25l-139 144l-219 -144z" />
<glyph unicode="&#xf5;" d="M53 365q6 90 45 170.5t99.5 140t138.5 94.5t164 33q168 -4 261 -104.5t79 -278.5q-6 -90 -45 -171t-99.5 -140.5t-137.5 -94t-163 -32.5q-84 2 -151.5 28.5t-111.5 75.5t-65.5 119.5t-13.5 159.5zM180 348q-4 -80 19.5 -145.5t66.5 -107.5t99.5 -55t119.5 9q39 14 78 47 t71 83t52.5 115.5t24.5 143.5q4 82 -19.5 147.5t-66.5 106.5t-99.5 55.5t-119.5 -8.5q-39 -14 -78 -47t-71 -83t-52.5 -115.5t-24.5 -145.5zM365 971l14 73q35 23 80 23q18 0 35.5 -7t33.5 -16q16 -8 37 -15t41 -7q43 0 78 20l-14 -71q-35 -20 -78 -21q-20 0 -40 6.5 t-36 16.5q-16 8 -34.5 15t-37.5 7q-20 0 -41.5 -6t-37.5 -18z" />
<glyph unicode="&#xf6;" d="M53 365q6 90 45 170.5t99.5 140t138.5 94.5t164 33q168 -4 261 -104.5t79 -278.5q-6 -90 -45 -171t-99.5 -140.5t-137.5 -94t-163 -32.5q-84 2 -151.5 28.5t-111.5 75.5t-65.5 119.5t-13.5 159.5zM180 348q-4 -80 19.5 -145.5t66.5 -107.5t99.5 -55t119.5 9q39 14 78 47 t71 83t52.5 115.5t24.5 143.5q4 82 -19.5 147.5t-66.5 106.5t-99.5 55.5t-119.5 -8.5q-39 -14 -78 -47t-71 -83t-52.5 -115.5t-24.5 -145.5zM326 993q4 27 22.5 43.5t40.5 16.5q23 0 39 -16.5t12 -45.5q-4 -23 -21.5 -40t-39.5 -17q-27 0 -42 17.5t-11 41.5zM584 993 q4 27 23.5 43.5t41.5 16.5q23 0 38 -16.5t11 -45.5q-4 -23 -21.5 -40t-39.5 -17q-23 0 -39 17.5t-14 41.5z" />
<glyph unicode="&#xf8;" d="M53 365q6 90 45 170.5t99.5 140t138.5 94.5t164 33q25 0 48 -4l46 -8l70 155h75l-80 -176q94 -43 142.5 -132t38.5 -218q-6 -90 -45 -171t-99.5 -140.5t-137.5 -94t-163 -32.5q-23 2 -42 3t-40 5l-73 -166h-80l84 186q-100 41 -151.5 131t-39.5 224zM180 348 q-4 -86 22.5 -154.5t73.5 -109.5l291 649q-35 16 -75.5 19.5t-85.5 -13.5q-39 -14 -78 -47t-71 -83t-52.5 -115.5t-24.5 -145.5zM338 47q70 -27 147 2q39 14 78 47t71 83t52.5 115.5t24.5 143.5q4 82 -19.5 147.5t-66.5 106.5z" />
<glyph unicode="&#xf9;" horiz-adv-x="841" d="M88 754v37l150 -3l135 3v-37q-35 0 -56.5 -10.5t-27.5 -51.5l-72 -416q-20 -113 24 -172t132 -61q39 -2 72.5 9t63.5 39t51.5 75t35.5 119l72 379q12 61 -6.5 75.5t-71.5 14.5v37l125 -3l110 3v-37q-23 0 -37 -3t-23 -12.5t-14.5 -28t-11.5 -51.5l-71 -380 q-16 -92 -48 -150.5t-73 -92.5t-92.5 -47.5t-108.5 -11.5q-78 2 -129 25t-79.5 59.5t-37 87t1.5 109.5l72 426q4 25 -2 38t-19.5 20.5t-31 9.5t-33.5 2zM332 1167l119 39l167 -225l-34 -25z" />
<glyph unicode="&#xfa;" horiz-adv-x="841" d="M88 754v37l150 -3l135 3v-37q-35 0 -56.5 -10.5t-27.5 -51.5l-72 -416q-20 -113 24 -172t132 -61q39 -2 72.5 9t63.5 39t51.5 75t35.5 119l72 379q12 61 -6.5 75.5t-71.5 14.5v37l125 -3l110 3v-37q-23 0 -37 -3t-23 -12.5t-14.5 -28t-11.5 -51.5l-71 -380 q-16 -92 -48 -150.5t-73 -92.5t-92.5 -47.5t-108.5 -11.5q-78 2 -129 25t-79.5 59.5t-37 87t1.5 109.5l72 426q4 25 -2 38t-19.5 20.5t-31 9.5t-33.5 2zM397 981l168 225l121 -39l-252 -211z" />
<glyph unicode="&#xfb;" horiz-adv-x="841" d="M88 754v37l150 -3l135 3v-37q-35 0 -56.5 -10.5t-27.5 -51.5l-72 -416q-20 -113 24 -172t132 -61q39 -2 72.5 9t63.5 39t51.5 75t35.5 119l72 379q12 61 -6.5 75.5t-71.5 14.5v37l125 -3l110 3v-37q-23 0 -37 -3t-23 -12.5t-14.5 -28t-11.5 -51.5l-71 -380 q-16 -92 -48 -150.5t-73 -92.5t-92.5 -47.5t-108.5 -11.5q-78 2 -129 25t-79.5 59.5t-37 87t1.5 109.5l72 426q4 25 -2 38t-19.5 20.5t-31 9.5t-33.5 2zM260 981l240 223h88l110 -223l-47 -25l-137 144l-219 -144z" />
<glyph unicode="&#xfc;" horiz-adv-x="841" d="M88 754v37l150 -3l135 3v-37q-35 0 -56.5 -10.5t-27.5 -51.5l-72 -416q-20 -113 24 -172t132 -61q39 -2 72.5 9t63.5 39t51.5 75t35.5 119l72 379q12 61 -6.5 75.5t-71.5 14.5v37l125 -3l110 3v-37q-23 0 -37 -3t-23 -12.5t-14.5 -28t-11.5 -51.5l-71 -380 q-16 -92 -48 -150.5t-73 -92.5t-92.5 -47.5t-108.5 -11.5q-78 2 -129 25t-79.5 59.5t-37 87t1.5 109.5l72 426q4 25 -2 38t-19.5 20.5t-31 9.5t-33.5 2zM309 993q4 27 21.5 43.5t40.5 16.5t39 -16.5t12 -45.5q-4 -23 -21.5 -40t-40.5 -17q-27 0 -41 17.5t-10 41.5zM565 993 q4 27 23.5 43.5t42.5 16.5t38 -16.5t11 -45.5q-4 -23 -21.5 -40t-40.5 -17t-39 17.5t-14 41.5z" />
<glyph unicode="&#x152;" horiz-adv-x="1380" d="M53 365q6 90 45 170.5t99.5 140t138.5 94.5t164 33q115 -4 197.5 -55.5t123.5 -157.5q66 82 150 136t170 71q78 14 124 -12.5t58 -77t-12.5 -116t-88 -130t-166 -117.5t-247.5 -78q-2 -33 5 -67.5t26.5 -63.5t53.5 -48t86 -18t126 24.5t174 78.5l25 -35 q-154 -98 -260.5 -130t-175 -21.5t-105.5 52.5t-53 89q-59 -70 -141.5 -110t-174.5 -35q-84 2 -151.5 28.5t-111.5 75.5t-65.5 119.5t-13.5 159.5zM180 348q-4 -80 19.5 -145.5t66.5 -107.5t99.5 -55t119.5 9q39 14 78 47t71 83t52.5 115.5t24.5 143.5q4 82 -19.5 147.5 t-66.5 106.5t-99.5 55.5t-119.5 -8.5q-39 -14 -78 -47t-71 -83t-52.5 -115.5t-24.5 -145.5zM813 330q129 25 219 89t136 133t50.5 124t-38.5 61q-31 4 -84.5 -16.5t-110.5 -69.5t-105.5 -129t-66.5 -192z" />
<glyph unicode="&#x153;" horiz-adv-x="1380" d="M53 365q6 90 45 170.5t99.5 140t138.5 94.5t164 33q115 -4 197.5 -55.5t123.5 -157.5q66 82 150 136t170 71q78 14 124 -12.5t58 -77t-12.5 -116t-88 -130t-166 -117.5t-247.5 -78q-2 -33 5 -67.5t26.5 -63.5t53.5 -48t86 -18t126 24.5t174 78.5l25 -35 q-154 -98 -260.5 -130t-175 -21.5t-105.5 52.5t-53 89q-59 -70 -141.5 -110t-174.5 -35q-84 2 -151.5 28.5t-111.5 75.5t-65.5 119.5t-13.5 159.5zM180 348q-4 -80 19.5 -145.5t66.5 -107.5t99.5 -55t119.5 9q39 14 78 47t71 83t52.5 115.5t24.5 143.5q4 82 -19.5 147.5 t-66.5 106.5t-99.5 55.5t-119.5 -8.5q-39 -14 -78 -47t-71 -83t-52.5 -115.5t-24.5 -145.5zM813 330q129 25 219 89t136 133t50.5 124t-38.5 61q-31 4 -84.5 -16.5t-110.5 -69.5t-105.5 -129t-66.5 -192z" />
<glyph unicode="&#x2c6;" horiz-adv-x="518" d="M102 981l238 223h88l113 -223l-47 -25l-138 144l-221 -144z" />
<glyph unicode="&#x2dc;" horiz-adv-x="395" d="M39 971l14 73q35 23 80 23q18 0 35.5 -7t34.5 -16q16 -8 36.5 -15t41.5 -7q43 0 77 20l-14 -71q-35 -20 -76 -21q-23 0 -42 6.5t-36 16.5q-16 8 -33.5 15t-37.5 7t-42 -6t-38 -18z" />
<glyph unicode="&#x2000;" horiz-adv-x="702" />
<glyph unicode="&#x2001;" horiz-adv-x="1405" />
<glyph unicode="&#x2002;" horiz-adv-x="702" />
<glyph unicode="&#x2003;" horiz-adv-x="1405" />
<glyph unicode="&#x2004;" horiz-adv-x="468" />
<glyph unicode="&#x2005;" horiz-adv-x="351" />
<glyph unicode="&#x2006;" horiz-adv-x="234" />
<glyph unicode="&#x2007;" horiz-adv-x="234" />
<glyph unicode="&#x2008;" horiz-adv-x="175" />
<glyph unicode="&#x2009;" horiz-adv-x="281" />
<glyph unicode="&#x200a;" horiz-adv-x="78" />
<glyph unicode="&#x2010;" horiz-adv-x="604" d="M162 377l10 67h268l-6 -67h-272z" />
<glyph unicode="&#x2011;" horiz-adv-x="604" d="M162 377l10 67h268l-6 -67h-272z" />
<glyph unicode="&#x2012;" horiz-adv-x="604" d="M162 377l10 67h268l-6 -67h-272z" />
<glyph unicode="&#x2013;" horiz-adv-x="1024" d="M0 371v73h1024v-73h-1024z" />
<glyph unicode="&#x2014;" horiz-adv-x="2048" d="M0 371v73h2048v-73h-2048z" />
<glyph unicode="&#x2018;" horiz-adv-x="432" d="M124 815q-1 27 13 59q29 68 71 103t111 74l33 -15q-49 -31 -74.5 -58.5t-32.5 -49t-2 -36.5t17 -22q39 -20 33 -65q-6 -33 -34 -57.5t-66 -18.5q-18 2 -34 12.5t-25 28.5t-10 45z" />
<glyph unicode="&#x2019;" horiz-adv-x="432" d="M80 725q49 31 74.5 58.5t34 49t2 37t-18.5 21.5q-16 10 -25.5 27.5t-5.5 39.5q6 31 34 55.5t65 20.5q37 -6 60.5 -42.5t-5.5 -104.5q-29 -66 -71 -100.5t-111 -73.5z" />
<glyph unicode="&#x201c;" horiz-adv-x="647" d="M132.5 770q-23.5 37 4.5 104q14 33 30.5 57.5t39 44t50.5 37t62 36.5l33 -13q-49 -31 -74.5 -58.5t-33.5 -49t-2 -36.5t18 -22q16 -10 25.5 -27.5t5.5 -39.5q-6 -31 -34 -55.5t-64 -20.5q-37 6 -60.5 43zM355.5 770q-23.5 37 4.5 104q14 33 31 57.5t39.5 44t50 37 t62.5 36.5l32 -13q-49 -31 -74.5 -58.5t-33.5 -49t-2 -36.5t18 -22q16 -10 25.5 -27.5t5.5 -39.5q-6 -31 -33.5 -55.5t-64.5 -20.5q-37 6 -60.5 43z" />
<glyph unicode="&#x201d;" horiz-adv-x="647" d="M80 725q49 31 74.5 58.5t34 49t2 37t-18.5 21.5q-16 10 -25.5 27.5t-5.5 39.5q6 31 34 55.5t65 20.5q37 -6 60.5 -42.5t-5.5 -104.5q-29 -66 -71 -100.5t-111 -73.5zM303 725q49 31 74.5 58.5t34 49t2.5 37t-19 21.5q-16 10 -25.5 27.5t-4.5 39.5q6 31 33.5 55.5 t64.5 20.5q37 -6 60.5 -42.5t-5.5 -104.5q-29 -66 -70.5 -100.5t-111.5 -73.5z" />
<glyph unicode="&#x2022;" horiz-adv-x="905" d="M59 395q8 82 48 154t99.5 126t135.5 85t158 31t150.5 -31t115.5 -85t69.5 -126t14.5 -154t-47 -153.5t-98.5 -126t-135 -85t-157.5 -30.5t-150.5 30.5t-117 85t-72 126t-13.5 153.5z" />
<glyph unicode="&#x2026;" horiz-adv-x="970" d="M80 59q6 33 32.5 55.5t59.5 22.5q31 0 49 -22.5t12 -55.5q-4 -31 -30.5 -53t-59.5 -22t-50 22.5t-13 52.5zM403 59q6 33 33 55.5t60 22.5q31 0 49 -22.5t12 -55.5q-6 -31 -32.5 -53t-57.5 -22q-33 0 -50.5 22.5t-13.5 52.5zM727 59q6 33 32.5 55.5t57.5 22.5 q33 0 51.5 -22.5t12.5 -55.5q-6 -31 -33 -53t-57 -22q-33 0 -50.5 22.5t-13.5 52.5z" />
<glyph unicode="&#x202f;" horiz-adv-x="281" />
<glyph unicode="&#x205f;" horiz-adv-x="351" />
<glyph unicode="&#x2122;" horiz-adv-x="1509" d="M109 1217v59h116l31 129h78l-17 -127h170v-61h-182l-39 -238q-8 -49 -11 -86t11.5 -53.5t49 -7t102.5 54.5l24 -37q-109 -86 -169 -101.5t-85.5 9t-27.5 75t6 95.5l49 289h-106zM557 1239q57 39 101 48t69 -14.5t25 -78.5t-33 -145q78 137 141.5 192t118.5 55 q63 0 82.5 -52t-12.5 -183q33 63 69.5 107t74.5 73t72.5 42t61.5 13q37 0 51.5 -26.5t12.5 -75.5t-16.5 -118.5t-39.5 -155.5q-10 -35 -14 -64t0 -47t18.5 -20.5t42.5 16.5l19 -29q-23 -23 -52.5 -33t-62.5 -10q-16 0 -31.5 6t-24.5 22.5t-11 44.5t8 71q20 80 36.5 144 t20.5 108.5t-6 63.5t-41 7q-23 -8 -57.5 -41t-72.5 -90t-73 -139t-55 -189q-53 -10 -75.5 3.5t-10.5 58.5q31 125 49.5 206t22.5 127t-9.5 59t-46.5 1q-20 -8 -54 -42t-70.5 -91t-72.5 -138t-61 -184q-49 -10 -70.5 3.5t-11.5 56.5q33 131 58.5 223t33 143.5t-10 61.5 t-72.5 -21z" />
<glyph unicode="&#xe000;" horiz-adv-x="788" d="M0 0v788h788v-788h-788z" />
</font>
</defs>
</svg>
